<svg xmlns="http://www.w3.org/2000/svg" width="2600" height="2600">
<defs>
  <marker id="arrowhead" markerWidth="10" markerHeight="7" 
    refX="9" refY="3.5" orient="auto">
    <polygon points="0 0, 10 3.5, 0 7" fill="#4A90E2"/>
  </marker>
  <style>
    @import url("https://fonts.googleapis.com/css2?family=Outfit:wght@400;700&amp;display=swap");
    text { font-family: Outfit; }
  </style>
</defs>
<defs>
  <linearGradient id="background-gradient" x1="0%" y1="0%" x2="100%" y2="100%">
    <stop offset="0%" style="stop-color:#F5F5F5;stop-opacity:.5" />
    <stop offset="100%" style="stop-color:#000000;stop-opacity:.5" />
  </linearGradient>
</defs>
<rect x="0" y="0" width="2600" height="2600" fill="white" />
<rect x="0" y="0" width="2600" height="2600" fill="url(#background-gradient)" />
<text x="200" y="200" font-size="96" font-weight="bold">
Dice Combinations
</text>
<text x="200" y="320" font-size="56" fill="#2C3E50"><tspan font-weight="bold">Task:</tspan> <tspan fill="#2C3E50">Construct n with ordered dice rolls</tspan></text>
<text x="200" y="440" font-size="56" fill="#2C3E50"><tspan font-weight="bold">DP:</tspan></text>
<g transform="translate(300, -176)"><svg xmlns:xlink="http://www.w3.org/1999/xlink" width="907.2pt" height="477.32pt" viewBox="0 0 907.2 477.32" xmlns="http://www.w3.org/2000/svg" version="1.1">
 <metadata>
  <rdf:RDF xmlns:dc="http://purl.org/dc/elements/1.1/" xmlns:cc="http://creativecommons.org/ns#" xmlns:rdf="http://www.w3.org/1999/02/22-rdf-syntax-ns#">
   <cc:Work>
    <dc:type rdf:resource="http://purl.org/dc/dcmitype/StillImage"/>
    <dc:date>2024-11-30T14:08:25.047440</dc:date>
    <dc:format>image/svg+xml</dc:format>
    <dc:creator>
     <cc:Agent>
      <dc:title>Matplotlib v3.9.2, https://matplotlib.org/</dc:title>
     </cc:Agent>
    </dc:creator>
   </cc:Work>
  </rdf:RDF>
 </metadata>
 <defs>
  <style type="text/css">*{stroke-linejoin: round; stroke-linecap: butt}</style>
 </defs>
 <g id="figure_1">
  <g id="patch_1">
   <path d="M 0 477.32 
L 907.2 477.32 
L 907.2 0 
L 0 0 
L 0 477.32 
z
" style="fill: none"/>
  </g>
  <g id="axes_1">
   <g id="text_1">
    <!-- $dp[x]$ is the number of ways to construct $x$ -->
    <g style="fill: #2c3e50" transform="translate(7.2 461.72) scale(0.4 -0.4)">
     <defs>
      <path id="DejaVuSans-Oblique-64" d="M 2675 525 
Q 2444 222 2128 65 
Q 1813 -91 1428 -91 
Q 903 -91 598 267 
Q 294 625 294 1247 
Q 294 1766 478 2236 
Q 663 2706 1013 3078 
Q 1244 3325 1534 3454 
Q 1825 3584 2144 3584 
Q 2481 3584 2739 3421 
Q 2997 3259 3138 2956 
L 3513 4863 
L 4091 4863 
L 3144 0 
L 2566 0 
L 2675 525 
z
M 891 1350 
Q 891 897 1095 644 
Q 1300 391 1663 391 
Q 1931 391 2161 520 
Q 2391 650 2566 903 
Q 2750 1166 2856 1509 
Q 2963 1853 2963 2188 
Q 2963 2622 2758 2865 
Q 2553 3109 2194 3109 
Q 1922 3109 1687 2981 
Q 1453 2853 1288 2613 
Q 1106 2353 998 2009 
Q 891 1666 891 1350 
z
" transform="scale(0.015625)"/>
      <path id="DejaVuSans-Oblique-70" d="M 3175 2156 
Q 3175 2616 2975 2859 
Q 2775 3103 2400 3103 
Q 2144 3103 1911 2972 
Q 1678 2841 1497 2591 
Q 1319 2344 1212 1994 
Q 1106 1644 1106 1300 
Q 1106 863 1306 627 
Q 1506 391 1875 391 
Q 2147 391 2380 519 
Q 2613 647 2778 891 
Q 2956 1147 3065 1494 
Q 3175 1841 3175 2156 
z
M 1394 2969 
Q 1625 3272 1939 3428 
Q 2253 3584 2638 3584 
Q 3175 3584 3472 3232 
Q 3769 2881 3769 2247 
Q 3769 1728 3584 1258 
Q 3400 788 3053 416 
Q 2822 169 2531 39 
Q 2241 -91 1919 -91 
Q 1547 -91 1294 64 
Q 1041 219 916 525 
L 556 -1331 
L -19 -1331 
L 922 3500 
L 1497 3500 
L 1394 2969 
z
" transform="scale(0.015625)"/>
      <path id="DejaVuSans-5b" d="M 550 4863 
L 1875 4863 
L 1875 4416 
L 1125 4416 
L 1125 -397 
L 1875 -397 
L 1875 -844 
L 550 -844 
L 550 4863 
z
" transform="scale(0.015625)"/>
      <path id="DejaVuSans-Oblique-78" d="M 3841 3500 
L 2234 1784 
L 3219 0 
L 2559 0 
L 1819 1388 
L 531 0 
L -166 0 
L 1556 1844 
L 641 3500 
L 1300 3500 
L 1972 2234 
L 3144 3500 
L 3841 3500 
z
" transform="scale(0.015625)"/>
      <path id="DejaVuSans-5d" d="M 1947 4863 
L 1947 -844 
L 622 -844 
L 622 -397 
L 1369 -397 
L 1369 4416 
L 622 4416 
L 622 4863 
L 1947 4863 
z
" transform="scale(0.015625)"/>
      <path id="Outfit-Regular-20" transform="scale(0.015625)"/>
      <path id="Outfit-Regular-69" d="M 429 0 
L 429 3040 
L 1005 3040 
L 1005 0 
L 429 0 
z
M 717 3648 
Q 557 3648 454 3753 
Q 352 3859 352 4019 
Q 352 4173 454 4278 
Q 557 4384 717 4384 
Q 877 4384 979 4278 
Q 1082 4173 1082 4019 
Q 1082 3859 979 3753 
Q 877 3648 717 3648 
z
" transform="scale(0.015625)"/>
      <path id="Outfit-Regular-73" d="M 1389 -64 
Q 1133 -64 905 3 
Q 678 70 486 195 
Q 294 320 154 493 
L 525 864 
Q 691 659 908 560 
Q 1126 461 1395 461 
Q 1664 461 1811 553 
Q 1958 646 1958 813 
Q 1958 979 1840 1072 
Q 1722 1165 1536 1225 
Q 1350 1286 1142 1347 
Q 934 1408 748 1504 
Q 563 1600 444 1766 
Q 326 1933 326 2208 
Q 326 2483 460 2684 
Q 595 2886 835 2995 
Q 1075 3104 1414 3104 
Q 1773 3104 2051 2979 
Q 2330 2854 2509 2605 
L 2138 2234 
Q 2010 2400 1821 2489 
Q 1632 2579 1395 2579 
Q 1146 2579 1014 2492 
Q 883 2406 883 2253 
Q 883 2099 998 2016 
Q 1114 1933 1302 1875 
Q 1491 1818 1696 1757 
Q 1901 1696 2086 1593 
Q 2272 1491 2390 1318 
Q 2509 1146 2509 864 
Q 2509 435 2205 185 
Q 1901 -64 1389 -64 
z
" transform="scale(0.015625)"/>
      <path id="Outfit-Regular-74" d="M 890 0 
L 890 4314 
L 1466 4314 
L 1466 0 
L 890 0 
z
M 141 2515 
L 141 3040 
L 2214 3040 
L 2214 2515 
L 141 2515 
z
" transform="scale(0.015625)"/>
      <path id="Outfit-Regular-68" d="M 2573 0 
L 2573 1773 
Q 2573 2118 2355 2342 
Q 2138 2566 1792 2566 
Q 1562 2566 1382 2464 
Q 1203 2362 1100 2182 
Q 998 2003 998 1773 
L 762 1907 
Q 762 2253 915 2521 
Q 1069 2790 1344 2947 
Q 1619 3104 1965 3104 
Q 2310 3104 2576 2950 
Q 2842 2797 2995 2521 
Q 3149 2246 3149 1888 
L 3149 0 
L 2573 0 
z
M 422 0 
L 422 4570 
L 998 4570 
L 998 0 
L 422 0 
z
" transform="scale(0.015625)"/>
      <path id="Outfit-Regular-65" d="M 1830 -64 
Q 1376 -64 1011 144 
Q 646 352 435 710 
Q 224 1069 224 1523 
Q 224 1971 432 2329 
Q 640 2688 995 2896 
Q 1350 3104 1792 3104 
Q 2214 3104 2537 2912 
Q 2861 2720 3043 2381 
Q 3226 2042 3226 1613 
Q 3226 1549 3219 1475 
Q 3213 1402 3194 1306 
L 627 1306 
L 627 1786 
L 2886 1786 
L 2675 1600 
Q 2675 1907 2566 2121 
Q 2458 2336 2259 2454 
Q 2061 2573 1779 2573 
Q 1485 2573 1261 2445 
Q 1037 2317 915 2086 
Q 794 1856 794 1542 
Q 794 1222 922 982 
Q 1050 742 1286 611 
Q 1523 480 1830 480 
Q 2086 480 2300 569 
Q 2515 659 2669 838 
L 3040 461 
Q 2822 205 2505 70 
Q 2189 -64 1830 -64 
z
" transform="scale(0.015625)"/>
      <path id="Outfit-Regular-6e" d="M 2573 0 
L 2573 1773 
Q 2573 2118 2355 2342 
Q 2138 2566 1792 2566 
Q 1562 2566 1382 2464 
Q 1203 2362 1100 2182 
Q 998 2003 998 1773 
L 762 1907 
Q 762 2253 915 2521 
Q 1069 2790 1344 2947 
Q 1619 3104 1965 3104 
Q 2310 3104 2576 2931 
Q 2842 2758 2995 2480 
Q 3149 2202 3149 1888 
L 3149 0 
L 2573 0 
z
M 422 0 
L 422 3040 
L 998 3040 
L 998 0 
L 422 0 
z
" transform="scale(0.015625)"/>
      <path id="Outfit-Regular-75" d="M 1651 -64 
Q 1274 -64 976 105 
Q 678 275 512 576 
Q 346 877 346 1274 
L 346 3040 
L 922 3040 
L 922 1299 
Q 922 1050 1008 867 
Q 1094 685 1260 589 
Q 1427 493 1651 493 
Q 1990 493 2182 707 
Q 2374 922 2374 1299 
L 2374 3040 
L 2950 3040 
L 2950 1274 
Q 2950 877 2784 576 
Q 2618 275 2326 105 
Q 2035 -64 1651 -64 
z
" transform="scale(0.015625)"/>
      <path id="Outfit-Regular-6d" d="M 422 0 
L 422 3040 
L 998 3040 
L 998 0 
L 422 0 
z
M 2477 0 
L 2477 1837 
Q 2477 2176 2269 2371 
Q 2061 2566 1747 2566 
Q 1536 2566 1369 2476 
Q 1203 2387 1100 2227 
Q 998 2067 998 1843 
L 762 1958 
Q 762 2304 912 2560 
Q 1062 2816 1324 2960 
Q 1587 3104 1914 3104 
Q 2234 3104 2493 2963 
Q 2752 2822 2902 2566 
Q 3053 2310 3053 1958 
L 3053 0 
L 2477 0 
z
M 4531 0 
L 4531 1837 
Q 4531 2176 4323 2371 
Q 4115 2566 3808 2566 
Q 3597 2566 3427 2476 
Q 3258 2387 3155 2227 
Q 3053 2067 3053 1843 
L 2726 1958 
Q 2746 2310 2915 2563 
Q 3085 2816 3353 2960 
Q 3622 3104 3942 3104 
Q 4275 3104 4537 2963 
Q 4800 2822 4957 2566 
Q 5114 2310 5114 1952 
L 5114 0 
L 4531 0 
z
" transform="scale(0.015625)"/>
      <path id="Outfit-Regular-62" d="M 2022 -64 
Q 1677 -64 1398 80 
Q 1120 224 953 480 
Q 787 736 768 1062 
L 768 1978 
Q 787 2310 956 2563 
Q 1126 2816 1404 2960 
Q 1683 3104 2022 3104 
Q 2438 3104 2774 2893 
Q 3110 2682 3302 2323 
Q 3494 1965 3494 1517 
Q 3494 1069 3302 710 
Q 3110 352 2774 144 
Q 2438 -64 2022 -64 
z
M 422 0 
L 422 4570 
L 998 4570 
L 998 2298 
L 890 1562 
L 998 819 
L 998 0 
L 422 0 
z
M 1926 480 
Q 2214 480 2432 614 
Q 2650 749 2778 982 
Q 2906 1216 2906 1523 
Q 2906 1824 2778 2061 
Q 2650 2298 2432 2429 
Q 2214 2560 1933 2560 
Q 1645 2560 1427 2429 
Q 1210 2298 1088 2061 
Q 966 1824 966 1517 
Q 966 1216 1084 982 
Q 1203 749 1424 614 
Q 1645 480 1926 480 
z
" transform="scale(0.015625)"/>
      <path id="Outfit-Regular-72" d="M 422 0 
L 422 3040 
L 998 3040 
L 998 0 
L 422 0 
z
M 998 1734 
L 781 1830 
Q 781 2413 1049 2758 
Q 1318 3104 1824 3104 
Q 2054 3104 2240 3024 
Q 2426 2944 2586 2758 
L 2208 2368 
Q 2112 2470 1997 2515 
Q 1882 2560 1728 2560 
Q 1408 2560 1203 2355 
Q 998 2150 998 1734 
z
" transform="scale(0.015625)"/>
      <path id="Outfit-Regular-6f" d="M 1811 -64 
Q 1363 -64 1004 147 
Q 646 358 435 720 
Q 224 1082 224 1530 
Q 224 1971 435 2326 
Q 646 2682 1004 2893 
Q 1363 3104 1811 3104 
Q 2253 3104 2614 2896 
Q 2976 2688 3187 2329 
Q 3398 1971 3398 1530 
Q 3398 1082 3187 720 
Q 2976 358 2614 147 
Q 2253 -64 1811 -64 
z
M 1811 493 
Q 2099 493 2323 627 
Q 2547 762 2675 995 
Q 2803 1229 2803 1530 
Q 2803 1824 2672 2054 
Q 2541 2285 2320 2416 
Q 2099 2547 1811 2547 
Q 1523 2547 1299 2416 
Q 1075 2285 947 2054 
Q 819 1824 819 1530 
Q 819 1229 947 995 
Q 1075 762 1299 627 
Q 1523 493 1811 493 
z
" transform="scale(0.015625)"/>
      <path id="Outfit-Regular-66" d="M 858 0 
L 858 3494 
Q 858 3834 1005 4086 
Q 1152 4339 1411 4486 
Q 1670 4634 2016 4634 
Q 2278 4634 2470 4544 
Q 2662 4454 2822 4282 
L 2445 3910 
Q 2362 4000 2259 4048 
Q 2157 4096 2010 4096 
Q 1734 4096 1584 3936 
Q 1434 3776 1434 3494 
L 1434 0 
L 858 0 
z
M 109 2515 
L 109 3040 
L 2400 3040 
L 2400 2515 
L 109 2515 
z
" transform="scale(0.015625)"/>
      <path id="Outfit-Regular-77" d="M 1293 0 
L 90 3040 
L 691 3040 
L 1562 672 
L 1370 672 
L 2234 3040 
L 2566 3040 
L 3430 672 
L 3238 672 
L 4109 3040 
L 4710 3040 
L 3514 0 
L 3174 0 
L 2298 2298 
L 2509 2298 
L 1626 0 
L 1293 0 
z
" transform="scale(0.015625)"/>
      <path id="Outfit-Regular-61" d="M 1715 -64 
Q 1299 -64 960 144 
Q 621 352 425 710 
Q 230 1069 230 1517 
Q 230 1965 425 2323 
Q 621 2682 957 2893 
Q 1293 3104 1715 3104 
Q 2061 3104 2333 2960 
Q 2605 2816 2771 2563 
Q 2938 2310 2957 1978 
L 2957 1062 
Q 2938 736 2774 480 
Q 2611 224 2339 80 
Q 2067 -64 1715 -64 
z
M 1811 480 
Q 2240 480 2502 771 
Q 2765 1062 2765 1517 
Q 2765 1830 2646 2064 
Q 2528 2298 2310 2429 
Q 2093 2560 1805 2560 
Q 1517 2560 1296 2425 
Q 1075 2291 950 2057 
Q 826 1824 826 1523 
Q 826 1216 950 982 
Q 1075 749 1299 614 
Q 1523 480 1811 480 
z
M 2726 0 
L 2726 819 
L 2835 1562 
L 2726 2298 
L 2726 3040 
L 3309 3040 
L 3309 0 
L 2726 0 
z
" transform="scale(0.015625)"/>
      <path id="Outfit-Regular-79" d="M 1421 -26 
L 102 3040 
L 742 3040 
L 1722 640 
L 1517 640 
L 2547 3040 
L 3187 3040 
L 1766 -26 
L 1421 -26 
z
M 550 -1274 
L 1446 563 
L 1766 -26 
L 1190 -1274 
L 550 -1274 
z
" transform="scale(0.015625)"/>
      <path id="Outfit-Regular-63" d="M 1811 -64 
Q 1363 -64 1001 147 
Q 640 358 432 720 
Q 224 1082 224 1523 
Q 224 1971 432 2329 
Q 640 2688 1001 2896 
Q 1363 3104 1811 3104 
Q 2163 3104 2464 2973 
Q 2765 2842 2982 2592 
L 2598 2208 
Q 2458 2374 2256 2460 
Q 2054 2547 1811 2547 
Q 1523 2547 1299 2416 
Q 1075 2285 947 2054 
Q 819 1824 819 1523 
Q 819 1222 947 992 
Q 1075 762 1299 627 
Q 1523 493 1811 493 
Q 2054 493 2256 579 
Q 2458 666 2605 832 
L 2982 448 
Q 2771 205 2467 70 
Q 2163 -64 1811 -64 
z
" transform="scale(0.015625)"/>
     </defs>
     <use xlink:href="#DejaVuSans-Oblique-64" transform="translate(0 0.015625)"/>
     <use xlink:href="#DejaVuSans-Oblique-70" transform="translate(63.476562 0.015625)"/>
     <use xlink:href="#DejaVuSans-5b" transform="translate(126.953125 0.015625)"/>
     <use xlink:href="#DejaVuSans-Oblique-78" transform="translate(165.966797 0.015625)"/>
     <use xlink:href="#DejaVuSans-5d" transform="translate(225.146484 0.015625)"/>
     <use xlink:href="#Outfit-Regular-20" transform="translate(264.160156 0.015625)"/>
     <use xlink:href="#Outfit-Regular-69" transform="translate(284.960144 0.015625)"/>
     <use xlink:href="#Outfit-Regular-73" transform="translate(307.360138 0.015625)"/>
     <use xlink:href="#Outfit-Regular-20" transform="translate(350.060135 0.015625)"/>
     <use xlink:href="#Outfit-Regular-74" transform="translate(370.860123 0.015625)"/>
     <use xlink:href="#Outfit-Regular-68" transform="translate(407.66011 0.015625)"/>
     <use xlink:href="#Outfit-Regular-65" transform="translate(462.460098 0.015625)"/>
     <use xlink:href="#Outfit-Regular-20" transform="translate(516.060089 0.015625)"/>
     <use xlink:href="#Outfit-Regular-6e" transform="translate(536.860077 0.015625)"/>
     <use xlink:href="#Outfit-Regular-75" transform="translate(591.660065 0.015625)"/>
     <use xlink:href="#Outfit-Regular-6d" transform="translate(643.260056 0.015625)"/>
     <use xlink:href="#Outfit-Regular-62" transform="translate(728.76004 0.015625)"/>
     <use xlink:href="#Outfit-Regular-65" transform="translate(786.960037 0.015625)"/>
     <use xlink:href="#Outfit-Regular-72" transform="translate(840.560028 0.015625)"/>
     <use xlink:href="#Outfit-Regular-20" transform="translate(882.460022 0.015625)"/>
     <use xlink:href="#Outfit-Regular-6f" transform="translate(903.26001 0.015625)"/>
     <use xlink:href="#Outfit-Regular-66" transform="translate(959.860001 0.015625)"/>
     <use xlink:href="#Outfit-Regular-20" transform="translate(999.759995 0.015625)"/>
     <use xlink:href="#Outfit-Regular-77" transform="translate(1020.559982 0.015625)"/>
     <use xlink:href="#Outfit-Regular-61" transform="translate(1095.559967 0.015625)"/>
     <use xlink:href="#Outfit-Regular-79" transform="translate(1153.759964 0.015625)"/>
     <use xlink:href="#Outfit-Regular-73" transform="translate(1205.159958 0.015625)"/>
     <use xlink:href="#Outfit-Regular-20" transform="translate(1247.859955 0.015625)"/>
     <use xlink:href="#Outfit-Regular-74" transform="translate(1268.659943 0.015625)"/>
     <use xlink:href="#Outfit-Regular-6f" transform="translate(1305.45993 0.015625)"/>
     <use xlink:href="#Outfit-Regular-20" transform="translate(1362.059921 0.015625)"/>
     <use xlink:href="#Outfit-Regular-63" transform="translate(1382.859909 0.015625)"/>
     <use xlink:href="#Outfit-Regular-6f" transform="translate(1431.759903 0.015625)"/>
     <use xlink:href="#Outfit-Regular-6e" transform="translate(1488.359894 0.015625)"/>
     <use xlink:href="#Outfit-Regular-73" transform="translate(1543.159882 0.015625)"/>
     <use xlink:href="#Outfit-Regular-74" transform="translate(1585.859879 0.015625)"/>
     <use xlink:href="#Outfit-Regular-72" transform="translate(1622.659866 0.015625)"/>
     <use xlink:href="#Outfit-Regular-75" transform="translate(1664.55986 0.015625)"/>
     <use xlink:href="#Outfit-Regular-63" transform="translate(1716.159851 0.015625)"/>
     <use xlink:href="#Outfit-Regular-74" transform="translate(1765.059845 0.015625)"/>
     <use xlink:href="#Outfit-Regular-20" transform="translate(1801.859833 0.015625)"/>
     <use xlink:href="#DejaVuSans-Oblique-78" transform="translate(1822.659821 0.015625)"/>
    </g>
   </g>
  </g>
 </g>
</svg></g>
<text x="200" y="560" font-size="56" fill="#2C3E50"><tspan font-weight="bold">Base:</tspan></text>
<g fill="#3498DB" transform="translate(340, -56)"><svg xmlns:xlink="http://www.w3.org/1999/xlink" width="907.2pt" height="477.32pt" viewBox="0 0 907.2 477.32" xmlns="http://www.w3.org/2000/svg" version="1.1">
 <metadata>
  <rdf:RDF xmlns:dc="http://purl.org/dc/elements/1.1/" xmlns:cc="http://creativecommons.org/ns#" xmlns:rdf="http://www.w3.org/1999/02/22-rdf-syntax-ns#">
   <cc:Work>
    <dc:type rdf:resource="http://purl.org/dc/dcmitype/StillImage"/>
    <dc:date>2024-11-30T14:08:25.056203</dc:date>
    <dc:format>image/svg+xml</dc:format>
    <dc:creator>
     <cc:Agent>
      <dc:title>Matplotlib v3.9.2, https://matplotlib.org/</dc:title>
     </cc:Agent>
    </dc:creator>
   </cc:Work>
  </rdf:RDF>
 </metadata>
 <defs>
  <style type="text/css">*{stroke-linejoin: round; stroke-linecap: butt}</style>
 </defs>
 <g id="figure_1">
  <g id="patch_1">
   <path d="M 0 477.32 
L 907.2 477.32 
L 907.2 0 
L 0 0 
L 0 477.32 
z
" style="fill: none"/>
  </g>
  <g id="axes_1">
   <g id="text_1">
    <!-- $dp = [1, 1, 2, 4, 8, 16, 32]$ -->
    <g style="fill: #2c3e50" transform="translate(7.2 461.72) scale(0.4 -0.4)">
     <defs>
      <path id="DejaVuSans-Oblique-64" d="M 2675 525 
Q 2444 222 2128 65 
Q 1813 -91 1428 -91 
Q 903 -91 598 267 
Q 294 625 294 1247 
Q 294 1766 478 2236 
Q 663 2706 1013 3078 
Q 1244 3325 1534 3454 
Q 1825 3584 2144 3584 
Q 2481 3584 2739 3421 
Q 2997 3259 3138 2956 
L 3513 4863 
L 4091 4863 
L 3144 0 
L 2566 0 
L 2675 525 
z
M 891 1350 
Q 891 897 1095 644 
Q 1300 391 1663 391 
Q 1931 391 2161 520 
Q 2391 650 2566 903 
Q 2750 1166 2856 1509 
Q 2963 1853 2963 2188 
Q 2963 2622 2758 2865 
Q 2553 3109 2194 3109 
Q 1922 3109 1687 2981 
Q 1453 2853 1288 2613 
Q 1106 2353 998 2009 
Q 891 1666 891 1350 
z
" transform="scale(0.015625)"/>
      <path id="DejaVuSans-Oblique-70" d="M 3175 2156 
Q 3175 2616 2975 2859 
Q 2775 3103 2400 3103 
Q 2144 3103 1911 2972 
Q 1678 2841 1497 2591 
Q 1319 2344 1212 1994 
Q 1106 1644 1106 1300 
Q 1106 863 1306 627 
Q 1506 391 1875 391 
Q 2147 391 2380 519 
Q 2613 647 2778 891 
Q 2956 1147 3065 1494 
Q 3175 1841 3175 2156 
z
M 1394 2969 
Q 1625 3272 1939 3428 
Q 2253 3584 2638 3584 
Q 3175 3584 3472 3232 
Q 3769 2881 3769 2247 
Q 3769 1728 3584 1258 
Q 3400 788 3053 416 
Q 2822 169 2531 39 
Q 2241 -91 1919 -91 
Q 1547 -91 1294 64 
Q 1041 219 916 525 
L 556 -1331 
L -19 -1331 
L 922 3500 
L 1497 3500 
L 1394 2969 
z
" transform="scale(0.015625)"/>
      <path id="DejaVuSans-3d" d="M 678 2906 
L 4684 2906 
L 4684 2381 
L 678 2381 
L 678 2906 
z
M 678 1631 
L 4684 1631 
L 4684 1100 
L 678 1100 
L 678 1631 
z
" transform="scale(0.015625)"/>
      <path id="DejaVuSans-5b" d="M 550 4863 
L 1875 4863 
L 1875 4416 
L 1125 4416 
L 1125 -397 
L 1875 -397 
L 1875 -844 
L 550 -844 
L 550 4863 
z
" transform="scale(0.015625)"/>
      <path id="DejaVuSans-31" d="M 794 531 
L 1825 531 
L 1825 4091 
L 703 3866 
L 703 4441 
L 1819 4666 
L 2450 4666 
L 2450 531 
L 3481 531 
L 3481 0 
L 794 0 
L 794 531 
z
" transform="scale(0.015625)"/>
      <path id="DejaVuSans-2c" d="M 750 794 
L 1409 794 
L 1409 256 
L 897 -744 
L 494 -744 
L 750 256 
L 750 794 
z
" transform="scale(0.015625)"/>
      <path id="DejaVuSans-32" d="M 1228 531 
L 3431 531 
L 3431 0 
L 469 0 
L 469 531 
Q 828 903 1448 1529 
Q 2069 2156 2228 2338 
Q 2531 2678 2651 2914 
Q 2772 3150 2772 3378 
Q 2772 3750 2511 3984 
Q 2250 4219 1831 4219 
Q 1534 4219 1204 4116 
Q 875 4013 500 3803 
L 500 4441 
Q 881 4594 1212 4672 
Q 1544 4750 1819 4750 
Q 2544 4750 2975 4387 
Q 3406 4025 3406 3419 
Q 3406 3131 3298 2873 
Q 3191 2616 2906 2266 
Q 2828 2175 2409 1742 
Q 1991 1309 1228 531 
z
" transform="scale(0.015625)"/>
      <path id="DejaVuSans-34" d="M 2419 4116 
L 825 1625 
L 2419 1625 
L 2419 4116 
z
M 2253 4666 
L 3047 4666 
L 3047 1625 
L 3713 1625 
L 3713 1100 
L 3047 1100 
L 3047 0 
L 2419 0 
L 2419 1100 
L 313 1100 
L 313 1709 
L 2253 4666 
z
" transform="scale(0.015625)"/>
      <path id="DejaVuSans-38" d="M 2034 2216 
Q 1584 2216 1326 1975 
Q 1069 1734 1069 1313 
Q 1069 891 1326 650 
Q 1584 409 2034 409 
Q 2484 409 2743 651 
Q 3003 894 3003 1313 
Q 3003 1734 2745 1975 
Q 2488 2216 2034 2216 
z
M 1403 2484 
Q 997 2584 770 2862 
Q 544 3141 544 3541 
Q 544 4100 942 4425 
Q 1341 4750 2034 4750 
Q 2731 4750 3128 4425 
Q 3525 4100 3525 3541 
Q 3525 3141 3298 2862 
Q 3072 2584 2669 2484 
Q 3125 2378 3379 2068 
Q 3634 1759 3634 1313 
Q 3634 634 3220 271 
Q 2806 -91 2034 -91 
Q 1263 -91 848 271 
Q 434 634 434 1313 
Q 434 1759 690 2068 
Q 947 2378 1403 2484 
z
M 1172 3481 
Q 1172 3119 1398 2916 
Q 1625 2713 2034 2713 
Q 2441 2713 2670 2916 
Q 2900 3119 2900 3481 
Q 2900 3844 2670 4047 
Q 2441 4250 2034 4250 
Q 1625 4250 1398 4047 
Q 1172 3844 1172 3481 
z
" transform="scale(0.015625)"/>
      <path id="DejaVuSans-36" d="M 2113 2584 
Q 1688 2584 1439 2293 
Q 1191 2003 1191 1497 
Q 1191 994 1439 701 
Q 1688 409 2113 409 
Q 2538 409 2786 701 
Q 3034 994 3034 1497 
Q 3034 2003 2786 2293 
Q 2538 2584 2113 2584 
z
M 3366 4563 
L 3366 3988 
Q 3128 4100 2886 4159 
Q 2644 4219 2406 4219 
Q 1781 4219 1451 3797 
Q 1122 3375 1075 2522 
Q 1259 2794 1537 2939 
Q 1816 3084 2150 3084 
Q 2853 3084 3261 2657 
Q 3669 2231 3669 1497 
Q 3669 778 3244 343 
Q 2819 -91 2113 -91 
Q 1303 -91 875 529 
Q 447 1150 447 2328 
Q 447 3434 972 4092 
Q 1497 4750 2381 4750 
Q 2619 4750 2861 4703 
Q 3103 4656 3366 4563 
z
" transform="scale(0.015625)"/>
      <path id="DejaVuSans-33" d="M 2597 2516 
Q 3050 2419 3304 2112 
Q 3559 1806 3559 1356 
Q 3559 666 3084 287 
Q 2609 -91 1734 -91 
Q 1441 -91 1130 -33 
Q 819 25 488 141 
L 488 750 
Q 750 597 1062 519 
Q 1375 441 1716 441 
Q 2309 441 2620 675 
Q 2931 909 2931 1356 
Q 2931 1769 2642 2001 
Q 2353 2234 1838 2234 
L 1294 2234 
L 1294 2753 
L 1863 2753 
Q 2328 2753 2575 2939 
Q 2822 3125 2822 3475 
Q 2822 3834 2567 4026 
Q 2313 4219 1838 4219 
Q 1578 4219 1281 4162 
Q 984 4106 628 3988 
L 628 4550 
Q 988 4650 1302 4700 
Q 1616 4750 1894 4750 
Q 2613 4750 3031 4423 
Q 3450 4097 3450 3541 
Q 3450 3153 3228 2886 
Q 3006 2619 2597 2516 
z
" transform="scale(0.015625)"/>
      <path id="DejaVuSans-5d" d="M 1947 4863 
L 1947 -844 
L 622 -844 
L 622 -397 
L 1369 -397 
L 1369 4416 
L 622 4416 
L 622 4863 
L 1947 4863 
z
" transform="scale(0.015625)"/>
     </defs>
     <use xlink:href="#DejaVuSans-Oblique-64" transform="translate(0 0.015625)"/>
     <use xlink:href="#DejaVuSans-Oblique-70" transform="translate(63.476562 0.015625)"/>
     <use xlink:href="#DejaVuSans-3d" transform="translate(146.435547 0.015625)"/>
     <use xlink:href="#DejaVuSans-5b" transform="translate(249.707031 0.015625)"/>
     <use xlink:href="#DejaVuSans-31" transform="translate(288.720703 0.015625)"/>
     <use xlink:href="#DejaVuSans-2c" transform="translate(352.34375 0.015625)"/>
     <use xlink:href="#DejaVuSans-31" transform="translate(403.613281 0.015625)"/>
     <use xlink:href="#DejaVuSans-2c" transform="translate(467.236328 0.015625)"/>
     <use xlink:href="#DejaVuSans-32" transform="translate(518.505859 0.015625)"/>
     <use xlink:href="#DejaVuSans-2c" transform="translate(582.128906 0.015625)"/>
     <use xlink:href="#DejaVuSans-34" transform="translate(633.398438 0.015625)"/>
     <use xlink:href="#DejaVuSans-2c" transform="translate(697.021484 0.015625)"/>
     <use xlink:href="#DejaVuSans-38" transform="translate(748.291016 0.015625)"/>
     <use xlink:href="#DejaVuSans-2c" transform="translate(811.914062 0.015625)"/>
     <use xlink:href="#DejaVuSans-31" transform="translate(863.183594 0.015625)"/>
     <use xlink:href="#DejaVuSans-36" transform="translate(926.806641 0.015625)"/>
     <use xlink:href="#DejaVuSans-2c" transform="translate(990.429688 0.015625)"/>
     <use xlink:href="#DejaVuSans-33" transform="translate(1041.699219 0.015625)"/>
     <use xlink:href="#DejaVuSans-32" transform="translate(1105.322266 0.015625)"/>
     <use xlink:href="#DejaVuSans-5d" transform="translate(1168.945312 0.015625)"/>
    </g>
   </g>
  </g>
 </g>
</svg></g>
<text x="200" y="680" font-size="56" fill="#2C3E50"><tspan font-weight="bold">Induction:</tspan></text>
<g transform="translate(460, 64)"><svg xmlns:xlink="http://www.w3.org/1999/xlink" width="907.2pt" height="512.52pt" viewBox="0 0 907.2 512.52" xmlns="http://www.w3.org/2000/svg" version="1.1">
 <metadata>
  <rdf:RDF xmlns:dc="http://purl.org/dc/elements/1.1/" xmlns:cc="http://creativecommons.org/ns#" xmlns:rdf="http://www.w3.org/1999/02/22-rdf-syntax-ns#">
   <cc:Work>
    <dc:type rdf:resource="http://purl.org/dc/dcmitype/StillImage"/>
    <dc:date>2024-11-30T14:08:25.130782</dc:date>
    <dc:format>image/svg+xml</dc:format>
    <dc:creator>
     <cc:Agent>
      <dc:title>Matplotlib v3.9.2, https://matplotlib.org/</dc:title>
     </cc:Agent>
    </dc:creator>
   </cc:Work>
  </rdf:RDF>
 </metadata>
 <defs>
  <style type="text/css">*{stroke-linejoin: round; stroke-linecap: butt}</style>
 </defs>
 <g id="figure_1">
  <g id="patch_1">
   <path d="M 0 512.52 
L 907.2 512.52 
L 907.2 0 
L 0 0 
L 0 512.52 
z
" style="fill: none"/>
  </g>
  <g id="axes_1">
   <g id="text_1">
    <!-- $dp[x] = \sum_{i=x-6}^{x-1} dp[i]$ -->
    <g style="fill: #2c3e50" transform="translate(7.2 464.92) scale(0.4 -0.4)">
     <defs>
      <path id="DejaVuSans-Oblique-64" d="M 2675 525 
Q 2444 222 2128 65 
Q 1813 -91 1428 -91 
Q 903 -91 598 267 
Q 294 625 294 1247 
Q 294 1766 478 2236 
Q 663 2706 1013 3078 
Q 1244 3325 1534 3454 
Q 1825 3584 2144 3584 
Q 2481 3584 2739 3421 
Q 2997 3259 3138 2956 
L 3513 4863 
L 4091 4863 
L 3144 0 
L 2566 0 
L 2675 525 
z
M 891 1350 
Q 891 897 1095 644 
Q 1300 391 1663 391 
Q 1931 391 2161 520 
Q 2391 650 2566 903 
Q 2750 1166 2856 1509 
Q 2963 1853 2963 2188 
Q 2963 2622 2758 2865 
Q 2553 3109 2194 3109 
Q 1922 3109 1687 2981 
Q 1453 2853 1288 2613 
Q 1106 2353 998 2009 
Q 891 1666 891 1350 
z
" transform="scale(0.015625)"/>
      <path id="DejaVuSans-Oblique-70" d="M 3175 2156 
Q 3175 2616 2975 2859 
Q 2775 3103 2400 3103 
Q 2144 3103 1911 2972 
Q 1678 2841 1497 2591 
Q 1319 2344 1212 1994 
Q 1106 1644 1106 1300 
Q 1106 863 1306 627 
Q 1506 391 1875 391 
Q 2147 391 2380 519 
Q 2613 647 2778 891 
Q 2956 1147 3065 1494 
Q 3175 1841 3175 2156 
z
M 1394 2969 
Q 1625 3272 1939 3428 
Q 2253 3584 2638 3584 
Q 3175 3584 3472 3232 
Q 3769 2881 3769 2247 
Q 3769 1728 3584 1258 
Q 3400 788 3053 416 
Q 2822 169 2531 39 
Q 2241 -91 1919 -91 
Q 1547 -91 1294 64 
Q 1041 219 916 525 
L 556 -1331 
L -19 -1331 
L 922 3500 
L 1497 3500 
L 1394 2969 
z
" transform="scale(0.015625)"/>
      <path id="DejaVuSans-5b" d="M 550 4863 
L 1875 4863 
L 1875 4416 
L 1125 4416 
L 1125 -397 
L 1875 -397 
L 1875 -844 
L 550 -844 
L 550 4863 
z
" transform="scale(0.015625)"/>
      <path id="DejaVuSans-Oblique-78" d="M 3841 3500 
L 2234 1784 
L 3219 0 
L 2559 0 
L 1819 1388 
L 531 0 
L -166 0 
L 1556 1844 
L 641 3500 
L 1300 3500 
L 1972 2234 
L 3144 3500 
L 3841 3500 
z
" transform="scale(0.015625)"/>
      <path id="DejaVuSans-5d" d="M 1947 4863 
L 1947 -844 
L 622 -844 
L 622 -397 
L 1369 -397 
L 1369 4416 
L 622 4416 
L 622 4863 
L 1947 4863 
z
" transform="scale(0.015625)"/>
      <path id="DejaVuSans-3d" d="M 678 2906 
L 4684 2906 
L 4684 2381 
L 678 2381 
L 678 2906 
z
M 678 1631 
L 4684 1631 
L 4684 1100 
L 678 1100 
L 678 1631 
z
" transform="scale(0.015625)"/>
      <path id="DejaVuSans-2212" d="M 678 2272 
L 4684 2272 
L 4684 1741 
L 678 1741 
L 678 2272 
z
" transform="scale(0.015625)"/>
      <path id="DejaVuSans-31" d="M 794 531 
L 1825 531 
L 1825 4091 
L 703 3866 
L 703 4441 
L 1819 4666 
L 2450 4666 
L 2450 531 
L 3481 531 
L 3481 0 
L 794 0 
L 794 531 
z
" transform="scale(0.015625)"/>
      <path id="DejaVuSansDisplay-2211" d="M 244 6509 
L 5803 6509 
L 5803 5656 
L 1566 5656 
L 4534 2488 
L 1469 -888 
L 5919 -888 
L 5919 -1738 
L 109 -1738 
L 109 -1078 
L 3316 2463 
L 244 5728 
L 244 6509 
z
" transform="scale(0.015625)"/>
      <path id="DejaVuSans-Oblique-69" d="M 1172 4863 
L 1747 4863 
L 1606 4134 
L 1031 4134 
L 1172 4863 
z
M 909 3500 
L 1484 3500 
L 800 0 
L 225 0 
L 909 3500 
z
" transform="scale(0.015625)"/>
      <path id="DejaVuSans-36" d="M 2113 2584 
Q 1688 2584 1439 2293 
Q 1191 2003 1191 1497 
Q 1191 994 1439 701 
Q 1688 409 2113 409 
Q 2538 409 2786 701 
Q 3034 994 3034 1497 
Q 3034 2003 2786 2293 
Q 2538 2584 2113 2584 
z
M 3366 4563 
L 3366 3988 
Q 3128 4100 2886 4159 
Q 2644 4219 2406 4219 
Q 1781 4219 1451 3797 
Q 1122 3375 1075 2522 
Q 1259 2794 1537 2939 
Q 1816 3084 2150 3084 
Q 2853 3084 3261 2657 
Q 3669 2231 3669 1497 
Q 3669 778 3244 343 
Q 2819 -91 2113 -91 
Q 1303 -91 875 529 
Q 447 1150 447 2328 
Q 447 3434 972 4092 
Q 1497 4750 2381 4750 
Q 2619 4750 2861 4703 
Q 3103 4656 3366 4563 
z
" transform="scale(0.015625)"/>
     </defs>
     <use xlink:href="#DejaVuSans-Oblique-64" transform="translate(0 0.5125)"/>
     <use xlink:href="#DejaVuSans-Oblique-70" transform="translate(63.476562 0.5125)"/>
     <use xlink:href="#DejaVuSans-5b" transform="translate(126.953125 0.5125)"/>
     <use xlink:href="#DejaVuSans-Oblique-78" transform="translate(165.966797 0.5125)"/>
     <use xlink:href="#DejaVuSans-5d" transform="translate(225.146484 0.5125)"/>
     <use xlink:href="#DejaVuSans-3d" transform="translate(283.642578 0.5125)"/>
     <use xlink:href="#DejaVuSans-Oblique-78" transform="translate(439.914062 120.965625) scale(0.7)"/>
     <use xlink:href="#DejaVuSans-2212" transform="translate(494.977539 120.965625) scale(0.7)"/>
     <use xlink:href="#DejaVuSans-31" transform="translate(567.267578 120.965625) scale(0.7)"/>
     <use xlink:href="#DejaVuSansDisplay-2211" transform="translate(479.914062 0.5125)"/>
     <use xlink:href="#DejaVuSans-Oblique-69" transform="translate(386.914062 -98.582812) scale(0.7)"/>
     <use xlink:href="#DejaVuSans-3d" transform="translate(420 -98.582812) scale(0.7)"/>
     <use xlink:href="#DejaVuSans-Oblique-78" transform="translate(492.290039 -98.582812) scale(0.7)"/>
     <use xlink:href="#DejaVuSans-2212" transform="translate(547.353516 -98.582812) scale(0.7)"/>
     <use xlink:href="#DejaVuSans-36" transform="translate(619.643555 -98.582812) scale(0.7)"/>
     <use xlink:href="#DejaVuSans-Oblique-64" transform="translate(664.179688 0.5125)"/>
     <use xlink:href="#DejaVuSans-Oblique-70" transform="translate(727.65625 0.5125)"/>
     <use xlink:href="#DejaVuSans-5b" transform="translate(791.132812 0.5125)"/>
     <use xlink:href="#DejaVuSans-Oblique-69" transform="translate(830.146484 0.5125)"/>
     <use xlink:href="#DejaVuSans-5d" transform="translate(857.929688 0.5125)"/>
    </g>
   </g>
  </g>
 </g>
</svg></g>
<text x="200" y="800" font-size="56" fill="#2C3E50"><tspan font-weight="bold">Intuition:</tspan></text>
<g transform="translate(432, 184)"><svg xmlns:xlink="http://www.w3.org/1999/xlink" width="907.2pt" height="476.3825pt" viewBox="0 0 907.2 476.3825" xmlns="http://www.w3.org/2000/svg" version="1.1">
 <metadata>
  <rdf:RDF xmlns:dc="http://purl.org/dc/elements/1.1/" xmlns:cc="http://creativecommons.org/ns#" xmlns:rdf="http://www.w3.org/1999/02/22-rdf-syntax-ns#">
   <cc:Work>
    <dc:type rdf:resource="http://purl.org/dc/dcmitype/StillImage"/>
    <dc:date>2024-11-30T14:08:25.138419</dc:date>
    <dc:format>image/svg+xml</dc:format>
    <dc:creator>
     <cc:Agent>
      <dc:title>Matplotlib v3.9.2, https://matplotlib.org/</dc:title>
     </cc:Agent>
    </dc:creator>
   </cc:Work>
  </rdf:RDF>
 </metadata>
 <defs>
  <style type="text/css">*{stroke-linejoin: round; stroke-linecap: butt}</style>
 </defs>
 <g id="figure_1">
  <g id="patch_1">
   <path d="M 0 476.3825 
L 907.2 476.3825 
L 907.2 0 
L 0 0 
L 0 476.3825 
z
" style="fill: none"/>
  </g>
  <g id="axes_1">
   <g id="text_1">
    <!-- The last roll can be any of 1, 2, 3, 4, 5, or 6 -->
    <g style="fill: #2c3e50" transform="translate(7.2 461.22) scale(0.4 -0.4)">
     <defs>
      <path id="Outfit-Regular-54" d="M 1702 0 
L 1702 4314 
L 2304 4314 
L 2304 0 
L 1702 0 
z
M 192 3891 
L 192 4442 
L 3808 4442 
L 3808 3891 
L 192 3891 
z
" transform="scale(0.015625)"/>
      <path id="Outfit-Regular-68" d="M 2573 0 
L 2573 1773 
Q 2573 2118 2355 2342 
Q 2138 2566 1792 2566 
Q 1562 2566 1382 2464 
Q 1203 2362 1100 2182 
Q 998 2003 998 1773 
L 762 1907 
Q 762 2253 915 2521 
Q 1069 2790 1344 2947 
Q 1619 3104 1965 3104 
Q 2310 3104 2576 2950 
Q 2842 2797 2995 2521 
Q 3149 2246 3149 1888 
L 3149 0 
L 2573 0 
z
M 422 0 
L 422 4570 
L 998 4570 
L 998 0 
L 422 0 
z
" transform="scale(0.015625)"/>
      <path id="Outfit-Regular-65" d="M 1830 -64 
Q 1376 -64 1011 144 
Q 646 352 435 710 
Q 224 1069 224 1523 
Q 224 1971 432 2329 
Q 640 2688 995 2896 
Q 1350 3104 1792 3104 
Q 2214 3104 2537 2912 
Q 2861 2720 3043 2381 
Q 3226 2042 3226 1613 
Q 3226 1549 3219 1475 
Q 3213 1402 3194 1306 
L 627 1306 
L 627 1786 
L 2886 1786 
L 2675 1600 
Q 2675 1907 2566 2121 
Q 2458 2336 2259 2454 
Q 2061 2573 1779 2573 
Q 1485 2573 1261 2445 
Q 1037 2317 915 2086 
Q 794 1856 794 1542 
Q 794 1222 922 982 
Q 1050 742 1286 611 
Q 1523 480 1830 480 
Q 2086 480 2300 569 
Q 2515 659 2669 838 
L 3040 461 
Q 2822 205 2505 70 
Q 2189 -64 1830 -64 
z
" transform="scale(0.015625)"/>
      <path id="Outfit-Regular-20" transform="scale(0.015625)"/>
      <path id="Outfit-Regular-6c" d="M 422 0 
L 422 4570 
L 998 4570 
L 998 0 
L 422 0 
z
" transform="scale(0.015625)"/>
      <path id="Outfit-Regular-61" d="M 1715 -64 
Q 1299 -64 960 144 
Q 621 352 425 710 
Q 230 1069 230 1517 
Q 230 1965 425 2323 
Q 621 2682 957 2893 
Q 1293 3104 1715 3104 
Q 2061 3104 2333 2960 
Q 2605 2816 2771 2563 
Q 2938 2310 2957 1978 
L 2957 1062 
Q 2938 736 2774 480 
Q 2611 224 2339 80 
Q 2067 -64 1715 -64 
z
M 1811 480 
Q 2240 480 2502 771 
Q 2765 1062 2765 1517 
Q 2765 1830 2646 2064 
Q 2528 2298 2310 2429 
Q 2093 2560 1805 2560 
Q 1517 2560 1296 2425 
Q 1075 2291 950 2057 
Q 826 1824 826 1523 
Q 826 1216 950 982 
Q 1075 749 1299 614 
Q 1523 480 1811 480 
z
M 2726 0 
L 2726 819 
L 2835 1562 
L 2726 2298 
L 2726 3040 
L 3309 3040 
L 3309 0 
L 2726 0 
z
" transform="scale(0.015625)"/>
      <path id="Outfit-Regular-73" d="M 1389 -64 
Q 1133 -64 905 3 
Q 678 70 486 195 
Q 294 320 154 493 
L 525 864 
Q 691 659 908 560 
Q 1126 461 1395 461 
Q 1664 461 1811 553 
Q 1958 646 1958 813 
Q 1958 979 1840 1072 
Q 1722 1165 1536 1225 
Q 1350 1286 1142 1347 
Q 934 1408 748 1504 
Q 563 1600 444 1766 
Q 326 1933 326 2208 
Q 326 2483 460 2684 
Q 595 2886 835 2995 
Q 1075 3104 1414 3104 
Q 1773 3104 2051 2979 
Q 2330 2854 2509 2605 
L 2138 2234 
Q 2010 2400 1821 2489 
Q 1632 2579 1395 2579 
Q 1146 2579 1014 2492 
Q 883 2406 883 2253 
Q 883 2099 998 2016 
Q 1114 1933 1302 1875 
Q 1491 1818 1696 1757 
Q 1901 1696 2086 1593 
Q 2272 1491 2390 1318 
Q 2509 1146 2509 864 
Q 2509 435 2205 185 
Q 1901 -64 1389 -64 
z
" transform="scale(0.015625)"/>
      <path id="Outfit-Regular-74" d="M 890 0 
L 890 4314 
L 1466 4314 
L 1466 0 
L 890 0 
z
M 141 2515 
L 141 3040 
L 2214 3040 
L 2214 2515 
L 141 2515 
z
" transform="scale(0.015625)"/>
      <path id="Outfit-Regular-72" d="M 422 0 
L 422 3040 
L 998 3040 
L 998 0 
L 422 0 
z
M 998 1734 
L 781 1830 
Q 781 2413 1049 2758 
Q 1318 3104 1824 3104 
Q 2054 3104 2240 3024 
Q 2426 2944 2586 2758 
L 2208 2368 
Q 2112 2470 1997 2515 
Q 1882 2560 1728 2560 
Q 1408 2560 1203 2355 
Q 998 2150 998 1734 
z
" transform="scale(0.015625)"/>
      <path id="Outfit-Regular-6f" d="M 1811 -64 
Q 1363 -64 1004 147 
Q 646 358 435 720 
Q 224 1082 224 1530 
Q 224 1971 435 2326 
Q 646 2682 1004 2893 
Q 1363 3104 1811 3104 
Q 2253 3104 2614 2896 
Q 2976 2688 3187 2329 
Q 3398 1971 3398 1530 
Q 3398 1082 3187 720 
Q 2976 358 2614 147 
Q 2253 -64 1811 -64 
z
M 1811 493 
Q 2099 493 2323 627 
Q 2547 762 2675 995 
Q 2803 1229 2803 1530 
Q 2803 1824 2672 2054 
Q 2541 2285 2320 2416 
Q 2099 2547 1811 2547 
Q 1523 2547 1299 2416 
Q 1075 2285 947 2054 
Q 819 1824 819 1530 
Q 819 1229 947 995 
Q 1075 762 1299 627 
Q 1523 493 1811 493 
z
" transform="scale(0.015625)"/>
      <path id="Outfit-Regular-63" d="M 1811 -64 
Q 1363 -64 1001 147 
Q 640 358 432 720 
Q 224 1082 224 1523 
Q 224 1971 432 2329 
Q 640 2688 1001 2896 
Q 1363 3104 1811 3104 
Q 2163 3104 2464 2973 
Q 2765 2842 2982 2592 
L 2598 2208 
Q 2458 2374 2256 2460 
Q 2054 2547 1811 2547 
Q 1523 2547 1299 2416 
Q 1075 2285 947 2054 
Q 819 1824 819 1523 
Q 819 1222 947 992 
Q 1075 762 1299 627 
Q 1523 493 1811 493 
Q 2054 493 2256 579 
Q 2458 666 2605 832 
L 2982 448 
Q 2771 205 2467 70 
Q 2163 -64 1811 -64 
z
" transform="scale(0.015625)"/>
      <path id="Outfit-Regular-6e" d="M 2573 0 
L 2573 1773 
Q 2573 2118 2355 2342 
Q 2138 2566 1792 2566 
Q 1562 2566 1382 2464 
Q 1203 2362 1100 2182 
Q 998 2003 998 1773 
L 762 1907 
Q 762 2253 915 2521 
Q 1069 2790 1344 2947 
Q 1619 3104 1965 3104 
Q 2310 3104 2576 2931 
Q 2842 2758 2995 2480 
Q 3149 2202 3149 1888 
L 3149 0 
L 2573 0 
z
M 422 0 
L 422 3040 
L 998 3040 
L 998 0 
L 422 0 
z
" transform="scale(0.015625)"/>
      <path id="Outfit-Regular-62" d="M 2022 -64 
Q 1677 -64 1398 80 
Q 1120 224 953 480 
Q 787 736 768 1062 
L 768 1978 
Q 787 2310 956 2563 
Q 1126 2816 1404 2960 
Q 1683 3104 2022 3104 
Q 2438 3104 2774 2893 
Q 3110 2682 3302 2323 
Q 3494 1965 3494 1517 
Q 3494 1069 3302 710 
Q 3110 352 2774 144 
Q 2438 -64 2022 -64 
z
M 422 0 
L 422 4570 
L 998 4570 
L 998 2298 
L 890 1562 
L 998 819 
L 998 0 
L 422 0 
z
M 1926 480 
Q 2214 480 2432 614 
Q 2650 749 2778 982 
Q 2906 1216 2906 1523 
Q 2906 1824 2778 2061 
Q 2650 2298 2432 2429 
Q 2214 2560 1933 2560 
Q 1645 2560 1427 2429 
Q 1210 2298 1088 2061 
Q 966 1824 966 1517 
Q 966 1216 1084 982 
Q 1203 749 1424 614 
Q 1645 480 1926 480 
z
" transform="scale(0.015625)"/>
      <path id="Outfit-Regular-79" d="M 1421 -26 
L 102 3040 
L 742 3040 
L 1722 640 
L 1517 640 
L 2547 3040 
L 3187 3040 
L 1766 -26 
L 1421 -26 
z
M 550 -1274 
L 1446 563 
L 1766 -26 
L 1190 -1274 
L 550 -1274 
z
" transform="scale(0.015625)"/>
      <path id="Outfit-Regular-66" d="M 858 0 
L 858 3494 
Q 858 3834 1005 4086 
Q 1152 4339 1411 4486 
Q 1670 4634 2016 4634 
Q 2278 4634 2470 4544 
Q 2662 4454 2822 4282 
L 2445 3910 
Q 2362 4000 2259 4048 
Q 2157 4096 2010 4096 
Q 1734 4096 1584 3936 
Q 1434 3776 1434 3494 
L 1434 0 
L 858 0 
z
M 109 2515 
L 109 3040 
L 2400 3040 
L 2400 2515 
L 109 2515 
z
" transform="scale(0.015625)"/>
      <path id="Outfit-Regular-31" d="M 1107 0 
L 1107 4442 
L 1702 4442 
L 1702 0 
L 1107 0 
z
M 198 3904 
L 198 4442 
L 1638 4442 
L 1638 3904 
L 198 3904 
z
" transform="scale(0.015625)"/>
      <path id="Outfit-Regular-2c" d="M 454 -704 
L 851 58 
L 1056 109 
Q 1024 38 976 -6 
Q 928 -51 858 -51 
Q 723 -51 611 61 
Q 499 173 499 339 
Q 499 525 620 649 
Q 742 774 928 774 
Q 1094 774 1222 649 
Q 1350 525 1350 339 
Q 1350 269 1321 169 
Q 1293 70 1210 -83 
L 787 -883 
L 454 -704 
z
" transform="scale(0.015625)"/>
      <path id="Outfit-Regular-32" d="M 211 365 
L 1850 2093 
Q 2099 2349 2240 2537 
Q 2381 2726 2441 2886 
Q 2502 3046 2502 3219 
Q 2502 3558 2284 3750 
Q 2067 3942 1722 3942 
Q 1382 3942 1126 3779 
Q 870 3616 672 3277 
L 250 3629 
Q 512 4064 883 4285 
Q 1254 4506 1741 4506 
Q 2150 4506 2454 4346 
Q 2758 4186 2924 3898 
Q 3091 3610 3091 3226 
Q 3091 2950 3024 2732 
Q 2957 2515 2787 2288 
Q 2618 2061 2317 1747 
L 992 384 
L 211 365 
z
M 211 0 
L 211 365 
L 723 538 
L 3194 538 
L 3194 0 
L 211 0 
z
" transform="scale(0.015625)"/>
      <path id="Outfit-Regular-33" d="M 1581 -64 
Q 1146 -64 790 99 
Q 435 262 192 576 
L 602 986 
Q 749 762 1005 630 
Q 1261 499 1574 499 
Q 1869 499 2083 611 
Q 2298 723 2422 928 
Q 2547 1133 2547 1402 
Q 2547 1677 2422 1878 
Q 2298 2080 2074 2189 
Q 1850 2298 1542 2298 
Q 1427 2298 1312 2282 
Q 1197 2266 1088 2234 
L 1344 2579 
Q 1466 2637 1606 2669 
Q 1747 2701 1888 2701 
Q 2246 2701 2531 2534 
Q 2816 2368 2985 2067 
Q 3155 1766 3155 1370 
Q 3155 947 2953 624 
Q 2752 301 2400 118 
Q 2048 -64 1581 -64 
z
M 1088 2234 
L 1088 2598 
L 2387 4077 
L 3104 4083 
L 1766 2566 
L 1088 2234 
z
M 403 3904 
L 403 4442 
L 3104 4442 
L 3104 4083 
L 2579 3904 
L 403 3904 
z
" transform="scale(0.015625)"/>
      <path id="Outfit-Regular-34" d="M 211 1530 
L 1830 4442 
L 2509 4442 
L 858 1530 
L 211 1530 
z
M 211 1158 
L 211 1530 
L 467 1696 
L 3616 1696 
L 3616 1158 
L 211 1158 
z
M 2381 0 
L 2381 2938 
L 2976 2938 
L 2976 0 
L 2381 0 
z
" transform="scale(0.015625)"/>
      <path id="Outfit-Regular-35" d="M 1587 -64 
Q 1133 -64 777 99 
Q 422 262 179 576 
L 589 986 
Q 736 762 995 630 
Q 1254 499 1574 499 
Q 1875 499 2102 614 
Q 2330 730 2461 938 
Q 2592 1146 2592 1434 
Q 2592 1728 2464 1933 
Q 2336 2138 2121 2243 
Q 1907 2349 1651 2349 
Q 1389 2349 1174 2285 
Q 960 2221 768 2067 
L 774 2451 
Q 883 2586 1024 2669 
Q 1165 2752 1344 2797 
Q 1523 2842 1760 2842 
Q 2221 2842 2541 2650 
Q 2861 2458 3030 2131 
Q 3200 1805 3200 1402 
Q 3200 979 2992 646 
Q 2784 314 2419 125 
Q 2054 -64 1587 -64 
z
M 768 2067 
L 442 2394 
L 640 4442 
L 1190 4442 
L 966 2336 
L 768 2067 
z
M 762 3904 
L 640 4442 
L 2976 4442 
L 2976 3904 
L 762 3904 
z
" transform="scale(0.015625)"/>
      <path id="Outfit-Regular-36" d="M 1805 -64 
Q 1363 -64 1014 141 
Q 666 346 461 691 
Q 256 1037 256 1459 
Q 256 2048 666 2630 
L 1971 4442 
L 2669 4442 
L 1331 2618 
L 1114 2502 
Q 1190 2637 1299 2729 
Q 1408 2822 1568 2873 
Q 1728 2925 1946 2925 
Q 2336 2925 2653 2739 
Q 2970 2554 3165 2230 
Q 3360 1907 3360 1478 
Q 3360 1056 3152 704 
Q 2944 352 2589 144 
Q 2234 -64 1805 -64 
z
M 1805 499 
Q 2074 499 2288 630 
Q 2502 762 2627 982 
Q 2752 1203 2752 1478 
Q 2752 1754 2627 1974 
Q 2502 2195 2288 2323 
Q 2074 2451 1805 2451 
Q 1536 2451 1321 2323 
Q 1107 2195 982 1974 
Q 858 1754 858 1478 
Q 858 1203 982 979 
Q 1107 755 1321 627 
Q 1536 499 1805 499 
z
" transform="scale(0.015625)"/>
     </defs>
     <use xlink:href="#Outfit-Regular-54"/>
     <use xlink:href="#Outfit-Regular-68" x="62.499985"/>
     <use xlink:href="#Outfit-Regular-65" x="117.299973"/>
     <use xlink:href="#Outfit-Regular-20" x="170.899963"/>
     <use xlink:href="#Outfit-Regular-6c" x="191.699951"/>
     <use xlink:href="#Outfit-Regular-61" x="213.899948"/>
     <use xlink:href="#Outfit-Regular-73" x="272.099945"/>
     <use xlink:href="#Outfit-Regular-74" x="314.799942"/>
     <use xlink:href="#Outfit-Regular-20" x="351.59993"/>
     <use xlink:href="#Outfit-Regular-72" x="372.399918"/>
     <use xlink:href="#Outfit-Regular-6f" x="414.299911"/>
     <use xlink:href="#Outfit-Regular-6c" x="470.899902"/>
     <use xlink:href="#Outfit-Regular-6c" x="493.099899"/>
     <use xlink:href="#Outfit-Regular-20" x="515.299896"/>
     <use xlink:href="#Outfit-Regular-63" x="536.099884"/>
     <use xlink:href="#Outfit-Regular-61" x="584.999878"/>
     <use xlink:href="#Outfit-Regular-6e" x="643.199875"/>
     <use xlink:href="#Outfit-Regular-20" x="697.999863"/>
     <use xlink:href="#Outfit-Regular-62" x="718.79985"/>
     <use xlink:href="#Outfit-Regular-65" x="776.999847"/>
     <use xlink:href="#Outfit-Regular-20" x="830.599838"/>
     <use xlink:href="#Outfit-Regular-61" x="851.399826"/>
     <use xlink:href="#Outfit-Regular-6e" x="909.599823"/>
     <use xlink:href="#Outfit-Regular-79" x="964.399811"/>
     <use xlink:href="#Outfit-Regular-20" x="1015.799805"/>
     <use xlink:href="#Outfit-Regular-6f" x="1036.599792"/>
     <use xlink:href="#Outfit-Regular-66" x="1093.199783"/>
     <use xlink:href="#Outfit-Regular-20" x="1133.099777"/>
     <use xlink:href="#Outfit-Regular-31" x="1153.899765"/>
     <use xlink:href="#Outfit-Regular-2c" x="1188.599762"/>
     <use xlink:href="#Outfit-Regular-20" x="1216.099747"/>
     <use xlink:href="#Outfit-Regular-32" x="1236.899734"/>
     <use xlink:href="#Outfit-Regular-2c" x="1290.999725"/>
     <use xlink:href="#Outfit-Regular-20" x="1318.49971"/>
     <use xlink:href="#Outfit-Regular-33" x="1339.299698"/>
     <use xlink:href="#Outfit-Regular-2c" x="1393.099686"/>
     <use xlink:href="#Outfit-Regular-20" x="1420.59967"/>
     <use xlink:href="#Outfit-Regular-34" x="1441.399658"/>
     <use xlink:href="#Outfit-Regular-2c" x="1501.199646"/>
     <use xlink:href="#Outfit-Regular-20" x="1528.699631"/>
     <use xlink:href="#Outfit-Regular-35" x="1549.499619"/>
     <use xlink:href="#Outfit-Regular-2c" x="1603.599609"/>
     <use xlink:href="#Outfit-Regular-20" x="1631.099594"/>
     <use xlink:href="#Outfit-Regular-6f" x="1651.899582"/>
     <use xlink:href="#Outfit-Regular-72" x="1708.499573"/>
     <use xlink:href="#Outfit-Regular-20" x="1750.399567"/>
     <use xlink:href="#Outfit-Regular-36" x="1771.199554"/>
    </g>
   </g>
  </g>
 </g>
</svg></g>
<line x1="317.0" y1="1040" x2="2243.0" y2="1040" stroke="black" stroke-width="6.0"/>
<line x1="317.0" y1="1168" x2="2243.0" y2="1168" stroke="black" stroke-width="6.0"/>
<text x="240" y="1104.0" font-size="48" fill="#2C3E50" text-anchor="middle" transform="rotate(-90, 240, 1104.0)"></text>
<line x1="320" y1="1037.0" x2="320" y2="1171.0" stroke="black" stroke-width="6.0"/>
<line x1="448" y1="1037.0" x2="448" y2="1171.0" stroke="black" stroke-width="6.0"/>
<line x1="576" y1="1037.0" x2="576" y2="1171.0" stroke="black" stroke-width="6.0"/>
<line x1="704" y1="1037.0" x2="704" y2="1171.0" stroke="black" stroke-width="6.0"/>
<line x1="832" y1="1037.0" x2="832" y2="1171.0" stroke="black" stroke-width="6.0"/>
<line x1="960" y1="1037.0" x2="960" y2="1171.0" stroke="black" stroke-width="6.0"/>
<line x1="1088" y1="1037.0" x2="1088" y2="1171.0" stroke="black" stroke-width="6.0"/>
<line x1="1216" y1="1037.0" x2="1216" y2="1171.0" stroke="black" stroke-width="6.0"/>
<line x1="1344" y1="1037.0" x2="1344" y2="1171.0" stroke="black" stroke-width="6.0"/>
<line x1="1472" y1="1037.0" x2="1472" y2="1171.0" stroke="black" stroke-width="6.0"/>
<line x1="1600" y1="1037.0" x2="1600" y2="1171.0" stroke="black" stroke-width="6.0"/>
<line x1="1728" y1="1037.0" x2="1728" y2="1171.0" stroke="black" stroke-width="6.0"/>
<line x1="1856" y1="1037.0" x2="1856" y2="1171.0" stroke="black" stroke-width="6.0"/>
<line x1="1984" y1="1037.0" x2="1984" y2="1171.0" stroke="black" stroke-width="6.0"/>
<line x1="2112" y1="1037.0" x2="2112" y2="1171.0" stroke="black" stroke-width="6.0"/>
<line x1="2240" y1="1037.0" x2="2240" y2="1171.0" stroke="black" stroke-width="6.0"/>
<text x="384.0" y="1020" font-size="48" fill="#2C3E50" text-anchor="middle">0</text>
<text x="512.0" y="1020" font-size="48" fill="#2C3E50" text-anchor="middle">1</text>
<text x="640.0" y="1020" font-size="48" fill="#2C3E50" text-anchor="middle">2</text>
<text x="768.0" y="1020" font-size="48" fill="#2C3E50" text-anchor="middle">3</text>
<text x="896.0" y="1020" font-size="48" fill="#2C3E50" text-anchor="middle">4</text>
<text x="1024.0" y="1020" font-size="48" fill="#2C3E50" text-anchor="middle">5</text>
<text x="1152.0" y="1020" font-size="48" fill="#2C3E50" text-anchor="middle">6</text>
<text x="1280.0" y="1020" font-size="48" fill="#2C3E50" text-anchor="middle">7</text>
<text x="1408.0" y="1020" font-size="48" fill="#2C3E50" text-anchor="middle">8</text>
<text x="1536.0" y="1020" font-size="48" fill="#2C3E50" text-anchor="middle">9</text>
<text x="1664.0" y="1020" font-size="48" fill="#2C3E50" text-anchor="middle">10</text>
<text x="1792.0" y="1020" font-size="48" fill="#2C3E50" text-anchor="middle">11</text>
<text x="1920.0" y="1020" font-size="48" fill="#2C3E50" text-anchor="middle">12</text>
<text x="2048.0" y="1020" font-size="48" fill="#2C3E50" text-anchor="middle">13</text>
<text x="2176.0" y="1020" font-size="48" fill="#2C3E50" text-anchor="middle">14</text>
<text x="1280.0" y="960" font-size="48" fill="#2C3E50" text-anchor="middle">sum x</text>
<rect x="323.0" y="1043.0" width="122.0" height="122.0" fill="#3498DB" opacity="0.6"/>
<rect x="451.0" y="1043.0" width="122.0" height="122.0" fill="#3498DB" opacity="0.6"/>
<rect x="579.0" y="1043.0" width="122.0" height="122.0" fill="#3498DB" opacity="0.6"/>
<rect x="707.0" y="1043.0" width="122.0" height="122.0" fill="#3498DB" opacity="0.6"/>
<rect x="835.0" y="1043.0" width="122.0" height="122.0" fill="#3498DB" opacity="0.6"/>
<rect x="963.0" y="1043.0" width="122.0" height="122.0" fill="#3498DB" opacity="0.6"/>
<rect x="1091.0" y="1043.0" width="122.0" height="122.0" fill="#3498DB" opacity="0.6"/>
<rect x="2115.0" y="1043.0" width="122.0" height="122.0" fill="#9B59B6" opacity="0.6"/>
<rect x="1347.0" y="1043.0" width="122.0" height="122.0" fill="#27AE60" opacity="0.6"/>
<rect x="1475.0" y="1043.0" width="122.0" height="122.0" fill="#27AE60" opacity="0.6"/>
<rect x="1603.0" y="1043.0" width="122.0" height="122.0" fill="#27AE60" opacity="0.6"/>
<rect x="1731.0" y="1043.0" width="122.0" height="122.0" fill="#27AE60" opacity="0.6"/>
<rect x="1859.0" y="1043.0" width="122.0" height="122.0" fill="#27AE60" opacity="0.6"/>
<rect x="1987.0" y="1043.0" width="122.0" height="122.0" fill="#27AE60" opacity="0.6"/>
<text x="1300.0" y="1300.0" font-size="144" fill="#2C3E50" opacity="0.10" text-anchor="middle" dominant-baseline="middle">sambhavg.github.io/blog/dp</text>
<text x="2520" y="2520" font-size="56" fill="#2C3E50" text-anchor="end" dominant-baseline="middle"><a href="cses.fi/problemset/task/1633" target="_blank">cses.fi/problemset/task/1633</a></text>
</svg>