<svg xmlns="http://www.w3.org/2000/svg" width="2600" height="2600">
<defs>
  <marker id="arrowhead" markerWidth="10" markerHeight="7" 
    refX="9" refY="3.5" orient="auto">
    <polygon points="0 0, 10 3.5, 0 7" fill="#4A90E2"/>
  </marker>
  <style>
    @import url("https://fonts.googleapis.com/css2?family=Outfit:wght@400;700&amp;display=swap");
    text { font-family: Outfit; }
  </style>
</defs>
<defs>
  <linearGradient id="background-gradient" x1="0%" y1="0%" x2="100%" y2="100%">
    <stop offset="0%" style="stop-color:#F5F5F5;stop-opacity:.5" />
    <stop offset="100%" style="stop-color:#000000;stop-opacity:.5" />
  </linearGradient>
</defs>
<rect x="0" y="0" width="2600" height="2600" fill="white" />
<rect x="0" y="0" width="2600" height="2600" fill="url(#background-gradient)" />
<text x="200" y="200" font-size="96" font-weight="bold">
Grid Paths
</text>
<text x="200" y="320" font-size="56" fill="#2C3E50"><tspan font-weight="bold">Task:</tspan> <tspan fill="#2C3E50">Count paths from top-left to bottom-right with obstacles</tspan></text>
<text x="200" y="440" font-size="56" fill="#2C3E50"><tspan font-weight="bold">DP:</tspan></text>
<g transform="translate(300, -176)"><svg xmlns:xlink="http://www.w3.org/1999/xlink" width="907.2pt" height="477.32pt" viewBox="0 0 907.2 477.32" xmlns="http://www.w3.org/2000/svg" version="1.1">
 <metadata>
  <rdf:RDF xmlns:dc="http://purl.org/dc/elements/1.1/" xmlns:cc="http://creativecommons.org/ns#" xmlns:rdf="http://www.w3.org/1999/02/22-rdf-syntax-ns#">
   <cc:Work>
    <dc:type rdf:resource="http://purl.org/dc/dcmitype/StillImage"/>
    <dc:date>2024-11-30T14:08:25.331337</dc:date>
    <dc:format>image/svg+xml</dc:format>
    <dc:creator>
     <cc:Agent>
      <dc:title>Matplotlib v3.9.2, https://matplotlib.org/</dc:title>
     </cc:Agent>
    </dc:creator>
   </cc:Work>
  </rdf:RDF>
 </metadata>
 <defs>
  <style type="text/css">*{stroke-linejoin: round; stroke-linecap: butt}</style>
 </defs>
 <g id="figure_1">
  <g id="patch_1">
   <path d="M 0 477.32 
L 907.2 477.32 
L 907.2 0 
L 0 0 
L 0 477.32 
z
" style="fill: none"/>
  </g>
  <g id="axes_1">
   <g id="text_1">
    <!-- $dp[i][j]$ is number of paths to cell $(i,j)$ -->
    <g style="fill: #2c3e50" transform="translate(7.2 461.72) scale(0.4 -0.4)">
     <defs>
      <path id="DejaVuSans-Oblique-64" d="M 2675 525 
Q 2444 222 2128 65 
Q 1813 -91 1428 -91 
Q 903 -91 598 267 
Q 294 625 294 1247 
Q 294 1766 478 2236 
Q 663 2706 1013 3078 
Q 1244 3325 1534 3454 
Q 1825 3584 2144 3584 
Q 2481 3584 2739 3421 
Q 2997 3259 3138 2956 
L 3513 4863 
L 4091 4863 
L 3144 0 
L 2566 0 
L 2675 525 
z
M 891 1350 
Q 891 897 1095 644 
Q 1300 391 1663 391 
Q 1931 391 2161 520 
Q 2391 650 2566 903 
Q 2750 1166 2856 1509 
Q 2963 1853 2963 2188 
Q 2963 2622 2758 2865 
Q 2553 3109 2194 3109 
Q 1922 3109 1687 2981 
Q 1453 2853 1288 2613 
Q 1106 2353 998 2009 
Q 891 1666 891 1350 
z
" transform="scale(0.015625)"/>
      <path id="DejaVuSans-Oblique-70" d="M 3175 2156 
Q 3175 2616 2975 2859 
Q 2775 3103 2400 3103 
Q 2144 3103 1911 2972 
Q 1678 2841 1497 2591 
Q 1319 2344 1212 1994 
Q 1106 1644 1106 1300 
Q 1106 863 1306 627 
Q 1506 391 1875 391 
Q 2147 391 2380 519 
Q 2613 647 2778 891 
Q 2956 1147 3065 1494 
Q 3175 1841 3175 2156 
z
M 1394 2969 
Q 1625 3272 1939 3428 
Q 2253 3584 2638 3584 
Q 3175 3584 3472 3232 
Q 3769 2881 3769 2247 
Q 3769 1728 3584 1258 
Q 3400 788 3053 416 
Q 2822 169 2531 39 
Q 2241 -91 1919 -91 
Q 1547 -91 1294 64 
Q 1041 219 916 525 
L 556 -1331 
L -19 -1331 
L 922 3500 
L 1497 3500 
L 1394 2969 
z
" transform="scale(0.015625)"/>
      <path id="DejaVuSans-5b" d="M 550 4863 
L 1875 4863 
L 1875 4416 
L 1125 4416 
L 1125 -397 
L 1875 -397 
L 1875 -844 
L 550 -844 
L 550 4863 
z
" transform="scale(0.015625)"/>
      <path id="DejaVuSans-Oblique-69" d="M 1172 4863 
L 1747 4863 
L 1606 4134 
L 1031 4134 
L 1172 4863 
z
M 909 3500 
L 1484 3500 
L 800 0 
L 225 0 
L 909 3500 
z
" transform="scale(0.015625)"/>
      <path id="DejaVuSans-5d" d="M 1947 4863 
L 1947 -844 
L 622 -844 
L 622 -397 
L 1369 -397 
L 1369 4416 
L 622 4416 
L 622 4863 
L 1947 4863 
z
" transform="scale(0.015625)"/>
      <path id="DejaVuSans-Oblique-6a" d="M 928 3500 
L 1503 3500 
L 813 -63 
L 809 -78 
Q 694 -675 544 -897 
Q 403 -1106 132 -1218 
Q -138 -1331 -506 -1331 
L -722 -1331 
L -628 -844 
L -481 -844 
Q -144 -844 -1 -703 
Q 141 -563 238 -63 
L 928 3500 
z
M 1197 4863 
L 1772 4863 
L 1631 4134 
L 1056 4134 
L 1197 4863 
z
" transform="scale(0.015625)"/>
      <path id="Outfit-Regular-20" transform="scale(0.015625)"/>
      <path id="Outfit-Regular-69" d="M 429 0 
L 429 3040 
L 1005 3040 
L 1005 0 
L 429 0 
z
M 717 3648 
Q 557 3648 454 3753 
Q 352 3859 352 4019 
Q 352 4173 454 4278 
Q 557 4384 717 4384 
Q 877 4384 979 4278 
Q 1082 4173 1082 4019 
Q 1082 3859 979 3753 
Q 877 3648 717 3648 
z
" transform="scale(0.015625)"/>
      <path id="Outfit-Regular-73" d="M 1389 -64 
Q 1133 -64 905 3 
Q 678 70 486 195 
Q 294 320 154 493 
L 525 864 
Q 691 659 908 560 
Q 1126 461 1395 461 
Q 1664 461 1811 553 
Q 1958 646 1958 813 
Q 1958 979 1840 1072 
Q 1722 1165 1536 1225 
Q 1350 1286 1142 1347 
Q 934 1408 748 1504 
Q 563 1600 444 1766 
Q 326 1933 326 2208 
Q 326 2483 460 2684 
Q 595 2886 835 2995 
Q 1075 3104 1414 3104 
Q 1773 3104 2051 2979 
Q 2330 2854 2509 2605 
L 2138 2234 
Q 2010 2400 1821 2489 
Q 1632 2579 1395 2579 
Q 1146 2579 1014 2492 
Q 883 2406 883 2253 
Q 883 2099 998 2016 
Q 1114 1933 1302 1875 
Q 1491 1818 1696 1757 
Q 1901 1696 2086 1593 
Q 2272 1491 2390 1318 
Q 2509 1146 2509 864 
Q 2509 435 2205 185 
Q 1901 -64 1389 -64 
z
" transform="scale(0.015625)"/>
      <path id="Outfit-Regular-6e" d="M 2573 0 
L 2573 1773 
Q 2573 2118 2355 2342 
Q 2138 2566 1792 2566 
Q 1562 2566 1382 2464 
Q 1203 2362 1100 2182 
Q 998 2003 998 1773 
L 762 1907 
Q 762 2253 915 2521 
Q 1069 2790 1344 2947 
Q 1619 3104 1965 3104 
Q 2310 3104 2576 2931 
Q 2842 2758 2995 2480 
Q 3149 2202 3149 1888 
L 3149 0 
L 2573 0 
z
M 422 0 
L 422 3040 
L 998 3040 
L 998 0 
L 422 0 
z
" transform="scale(0.015625)"/>
      <path id="Outfit-Regular-75" d="M 1651 -64 
Q 1274 -64 976 105 
Q 678 275 512 576 
Q 346 877 346 1274 
L 346 3040 
L 922 3040 
L 922 1299 
Q 922 1050 1008 867 
Q 1094 685 1260 589 
Q 1427 493 1651 493 
Q 1990 493 2182 707 
Q 2374 922 2374 1299 
L 2374 3040 
L 2950 3040 
L 2950 1274 
Q 2950 877 2784 576 
Q 2618 275 2326 105 
Q 2035 -64 1651 -64 
z
" transform="scale(0.015625)"/>
      <path id="Outfit-Regular-6d" d="M 422 0 
L 422 3040 
L 998 3040 
L 998 0 
L 422 0 
z
M 2477 0 
L 2477 1837 
Q 2477 2176 2269 2371 
Q 2061 2566 1747 2566 
Q 1536 2566 1369 2476 
Q 1203 2387 1100 2227 
Q 998 2067 998 1843 
L 762 1958 
Q 762 2304 912 2560 
Q 1062 2816 1324 2960 
Q 1587 3104 1914 3104 
Q 2234 3104 2493 2963 
Q 2752 2822 2902 2566 
Q 3053 2310 3053 1958 
L 3053 0 
L 2477 0 
z
M 4531 0 
L 4531 1837 
Q 4531 2176 4323 2371 
Q 4115 2566 3808 2566 
Q 3597 2566 3427 2476 
Q 3258 2387 3155 2227 
Q 3053 2067 3053 1843 
L 2726 1958 
Q 2746 2310 2915 2563 
Q 3085 2816 3353 2960 
Q 3622 3104 3942 3104 
Q 4275 3104 4537 2963 
Q 4800 2822 4957 2566 
Q 5114 2310 5114 1952 
L 5114 0 
L 4531 0 
z
" transform="scale(0.015625)"/>
      <path id="Outfit-Regular-62" d="M 2022 -64 
Q 1677 -64 1398 80 
Q 1120 224 953 480 
Q 787 736 768 1062 
L 768 1978 
Q 787 2310 956 2563 
Q 1126 2816 1404 2960 
Q 1683 3104 2022 3104 
Q 2438 3104 2774 2893 
Q 3110 2682 3302 2323 
Q 3494 1965 3494 1517 
Q 3494 1069 3302 710 
Q 3110 352 2774 144 
Q 2438 -64 2022 -64 
z
M 422 0 
L 422 4570 
L 998 4570 
L 998 2298 
L 890 1562 
L 998 819 
L 998 0 
L 422 0 
z
M 1926 480 
Q 2214 480 2432 614 
Q 2650 749 2778 982 
Q 2906 1216 2906 1523 
Q 2906 1824 2778 2061 
Q 2650 2298 2432 2429 
Q 2214 2560 1933 2560 
Q 1645 2560 1427 2429 
Q 1210 2298 1088 2061 
Q 966 1824 966 1517 
Q 966 1216 1084 982 
Q 1203 749 1424 614 
Q 1645 480 1926 480 
z
" transform="scale(0.015625)"/>
      <path id="Outfit-Regular-65" d="M 1830 -64 
Q 1376 -64 1011 144 
Q 646 352 435 710 
Q 224 1069 224 1523 
Q 224 1971 432 2329 
Q 640 2688 995 2896 
Q 1350 3104 1792 3104 
Q 2214 3104 2537 2912 
Q 2861 2720 3043 2381 
Q 3226 2042 3226 1613 
Q 3226 1549 3219 1475 
Q 3213 1402 3194 1306 
L 627 1306 
L 627 1786 
L 2886 1786 
L 2675 1600 
Q 2675 1907 2566 2121 
Q 2458 2336 2259 2454 
Q 2061 2573 1779 2573 
Q 1485 2573 1261 2445 
Q 1037 2317 915 2086 
Q 794 1856 794 1542 
Q 794 1222 922 982 
Q 1050 742 1286 611 
Q 1523 480 1830 480 
Q 2086 480 2300 569 
Q 2515 659 2669 838 
L 3040 461 
Q 2822 205 2505 70 
Q 2189 -64 1830 -64 
z
" transform="scale(0.015625)"/>
      <path id="Outfit-Regular-72" d="M 422 0 
L 422 3040 
L 998 3040 
L 998 0 
L 422 0 
z
M 998 1734 
L 781 1830 
Q 781 2413 1049 2758 
Q 1318 3104 1824 3104 
Q 2054 3104 2240 3024 
Q 2426 2944 2586 2758 
L 2208 2368 
Q 2112 2470 1997 2515 
Q 1882 2560 1728 2560 
Q 1408 2560 1203 2355 
Q 998 2150 998 1734 
z
" transform="scale(0.015625)"/>
      <path id="Outfit-Regular-6f" d="M 1811 -64 
Q 1363 -64 1004 147 
Q 646 358 435 720 
Q 224 1082 224 1530 
Q 224 1971 435 2326 
Q 646 2682 1004 2893 
Q 1363 3104 1811 3104 
Q 2253 3104 2614 2896 
Q 2976 2688 3187 2329 
Q 3398 1971 3398 1530 
Q 3398 1082 3187 720 
Q 2976 358 2614 147 
Q 2253 -64 1811 -64 
z
M 1811 493 
Q 2099 493 2323 627 
Q 2547 762 2675 995 
Q 2803 1229 2803 1530 
Q 2803 1824 2672 2054 
Q 2541 2285 2320 2416 
Q 2099 2547 1811 2547 
Q 1523 2547 1299 2416 
Q 1075 2285 947 2054 
Q 819 1824 819 1530 
Q 819 1229 947 995 
Q 1075 762 1299 627 
Q 1523 493 1811 493 
z
" transform="scale(0.015625)"/>
      <path id="Outfit-Regular-66" d="M 858 0 
L 858 3494 
Q 858 3834 1005 4086 
Q 1152 4339 1411 4486 
Q 1670 4634 2016 4634 
Q 2278 4634 2470 4544 
Q 2662 4454 2822 4282 
L 2445 3910 
Q 2362 4000 2259 4048 
Q 2157 4096 2010 4096 
Q 1734 4096 1584 3936 
Q 1434 3776 1434 3494 
L 1434 0 
L 858 0 
z
M 109 2515 
L 109 3040 
L 2400 3040 
L 2400 2515 
L 109 2515 
z
" transform="scale(0.015625)"/>
      <path id="Outfit-Regular-70" d="M 2022 -64 
Q 1677 -64 1398 80 
Q 1120 224 953 480 
Q 787 736 768 1062 
L 768 1978 
Q 787 2310 956 2563 
Q 1126 2816 1404 2960 
Q 1683 3104 2022 3104 
Q 2438 3104 2774 2893 
Q 3110 2682 3302 2323 
Q 3494 1965 3494 1517 
Q 3494 1069 3302 710 
Q 3110 352 2774 144 
Q 2438 -64 2022 -64 
z
M 422 -1274 
L 422 3040 
L 998 3040 
L 998 2240 
L 890 1504 
L 998 762 
L 998 -1274 
L 422 -1274 
z
M 1926 480 
Q 2214 480 2432 614 
Q 2650 749 2778 982 
Q 2906 1216 2906 1523 
Q 2906 1824 2778 2061 
Q 2650 2298 2432 2429 
Q 2214 2560 1933 2560 
Q 1645 2560 1427 2429 
Q 1210 2298 1088 2061 
Q 966 1824 966 1517 
Q 966 1216 1084 982 
Q 1203 749 1424 614 
Q 1645 480 1926 480 
z
" transform="scale(0.015625)"/>
      <path id="Outfit-Regular-61" d="M 1715 -64 
Q 1299 -64 960 144 
Q 621 352 425 710 
Q 230 1069 230 1517 
Q 230 1965 425 2323 
Q 621 2682 957 2893 
Q 1293 3104 1715 3104 
Q 2061 3104 2333 2960 
Q 2605 2816 2771 2563 
Q 2938 2310 2957 1978 
L 2957 1062 
Q 2938 736 2774 480 
Q 2611 224 2339 80 
Q 2067 -64 1715 -64 
z
M 1811 480 
Q 2240 480 2502 771 
Q 2765 1062 2765 1517 
Q 2765 1830 2646 2064 
Q 2528 2298 2310 2429 
Q 2093 2560 1805 2560 
Q 1517 2560 1296 2425 
Q 1075 2291 950 2057 
Q 826 1824 826 1523 
Q 826 1216 950 982 
Q 1075 749 1299 614 
Q 1523 480 1811 480 
z
M 2726 0 
L 2726 819 
L 2835 1562 
L 2726 2298 
L 2726 3040 
L 3309 3040 
L 3309 0 
L 2726 0 
z
" transform="scale(0.015625)"/>
      <path id="Outfit-Regular-74" d="M 890 0 
L 890 4314 
L 1466 4314 
L 1466 0 
L 890 0 
z
M 141 2515 
L 141 3040 
L 2214 3040 
L 2214 2515 
L 141 2515 
z
" transform="scale(0.015625)"/>
      <path id="Outfit-Regular-68" d="M 2573 0 
L 2573 1773 
Q 2573 2118 2355 2342 
Q 2138 2566 1792 2566 
Q 1562 2566 1382 2464 
Q 1203 2362 1100 2182 
Q 998 2003 998 1773 
L 762 1907 
Q 762 2253 915 2521 
Q 1069 2790 1344 2947 
Q 1619 3104 1965 3104 
Q 2310 3104 2576 2950 
Q 2842 2797 2995 2521 
Q 3149 2246 3149 1888 
L 3149 0 
L 2573 0 
z
M 422 0 
L 422 4570 
L 998 4570 
L 998 0 
L 422 0 
z
" transform="scale(0.015625)"/>
      <path id="Outfit-Regular-63" d="M 1811 -64 
Q 1363 -64 1001 147 
Q 640 358 432 720 
Q 224 1082 224 1523 
Q 224 1971 432 2329 
Q 640 2688 1001 2896 
Q 1363 3104 1811 3104 
Q 2163 3104 2464 2973 
Q 2765 2842 2982 2592 
L 2598 2208 
Q 2458 2374 2256 2460 
Q 2054 2547 1811 2547 
Q 1523 2547 1299 2416 
Q 1075 2285 947 2054 
Q 819 1824 819 1523 
Q 819 1222 947 992 
Q 1075 762 1299 627 
Q 1523 493 1811 493 
Q 2054 493 2256 579 
Q 2458 666 2605 832 
L 2982 448 
Q 2771 205 2467 70 
Q 2163 -64 1811 -64 
z
" transform="scale(0.015625)"/>
      <path id="Outfit-Regular-6c" d="M 422 0 
L 422 4570 
L 998 4570 
L 998 0 
L 422 0 
z
" transform="scale(0.015625)"/>
      <path id="DejaVuSans-28" d="M 1984 4856 
Q 1566 4138 1362 3434 
Q 1159 2731 1159 2009 
Q 1159 1288 1364 580 
Q 1569 -128 1984 -844 
L 1484 -844 
Q 1016 -109 783 600 
Q 550 1309 550 2009 
Q 550 2706 781 3412 
Q 1013 4119 1484 4856 
L 1984 4856 
z
" transform="scale(0.015625)"/>
      <path id="DejaVuSans-2c" d="M 750 794 
L 1409 794 
L 1409 256 
L 897 -744 
L 494 -744 
L 750 256 
L 750 794 
z
" transform="scale(0.015625)"/>
      <path id="DejaVuSans-29" d="M 513 4856 
L 1013 4856 
Q 1481 4119 1714 3412 
Q 1947 2706 1947 2009 
Q 1947 1309 1714 600 
Q 1481 -109 1013 -844 
L 513 -844 
Q 928 -128 1133 580 
Q 1338 1288 1338 2009 
Q 1338 2731 1133 3434 
Q 928 4138 513 4856 
z
" transform="scale(0.015625)"/>
     </defs>
     <use xlink:href="#DejaVuSans-Oblique-64" transform="translate(0 0.015625)"/>
     <use xlink:href="#DejaVuSans-Oblique-70" transform="translate(63.476562 0.015625)"/>
     <use xlink:href="#DejaVuSans-5b" transform="translate(126.953125 0.015625)"/>
     <use xlink:href="#DejaVuSans-Oblique-69" transform="translate(165.966797 0.015625)"/>
     <use xlink:href="#DejaVuSans-5d" transform="translate(193.75 0.015625)"/>
     <use xlink:href="#DejaVuSans-5b" transform="translate(232.763672 0.015625)"/>
     <use xlink:href="#DejaVuSans-Oblique-6a" transform="translate(271.777344 0.015625)"/>
     <use xlink:href="#DejaVuSans-5d" transform="translate(299.560547 0.015625)"/>
     <use xlink:href="#Outfit-Regular-20" transform="translate(338.574219 0.015625)"/>
     <use xlink:href="#Outfit-Regular-69" transform="translate(359.374207 0.015625)"/>
     <use xlink:href="#Outfit-Regular-73" transform="translate(381.7742 0.015625)"/>
     <use xlink:href="#Outfit-Regular-20" transform="translate(424.474197 0.015625)"/>
     <use xlink:href="#Outfit-Regular-6e" transform="translate(445.274185 0.015625)"/>
     <use xlink:href="#Outfit-Regular-75" transform="translate(500.074173 0.015625)"/>
     <use xlink:href="#Outfit-Regular-6d" transform="translate(551.674164 0.015625)"/>
     <use xlink:href="#Outfit-Regular-62" transform="translate(637.174149 0.015625)"/>
     <use xlink:href="#Outfit-Regular-65" transform="translate(695.374146 0.015625)"/>
     <use xlink:href="#Outfit-Regular-72" transform="translate(748.974136 0.015625)"/>
     <use xlink:href="#Outfit-Regular-20" transform="translate(790.87413 0.015625)"/>
     <use xlink:href="#Outfit-Regular-6f" transform="translate(811.674118 0.015625)"/>
     <use xlink:href="#Outfit-Regular-66" transform="translate(868.274109 0.015625)"/>
     <use xlink:href="#Outfit-Regular-20" transform="translate(908.174103 0.015625)"/>
     <use xlink:href="#Outfit-Regular-70" transform="translate(928.974091 0.015625)"/>
     <use xlink:href="#Outfit-Regular-61" transform="translate(987.174088 0.015625)"/>
     <use xlink:href="#Outfit-Regular-74" transform="translate(1045.374084 0.015625)"/>
     <use xlink:href="#Outfit-Regular-68" transform="translate(1082.174072 0.015625)"/>
     <use xlink:href="#Outfit-Regular-73" transform="translate(1136.97406 0.015625)"/>
     <use xlink:href="#Outfit-Regular-20" transform="translate(1179.674057 0.015625)"/>
     <use xlink:href="#Outfit-Regular-74" transform="translate(1200.474045 0.015625)"/>
     <use xlink:href="#Outfit-Regular-6f" transform="translate(1237.274033 0.015625)"/>
     <use xlink:href="#Outfit-Regular-20" transform="translate(1293.874023 0.015625)"/>
     <use xlink:href="#Outfit-Regular-63" transform="translate(1314.674011 0.015625)"/>
     <use xlink:href="#Outfit-Regular-65" transform="translate(1363.574005 0.015625)"/>
     <use xlink:href="#Outfit-Regular-6c" transform="translate(1417.173996 0.015625)"/>
     <use xlink:href="#Outfit-Regular-6c" transform="translate(1439.373993 0.015625)"/>
     <use xlink:href="#Outfit-Regular-20" transform="translate(1461.57399 0.015625)"/>
     <use xlink:href="#DejaVuSans-28" transform="translate(1482.373978 0.015625)"/>
     <use xlink:href="#DejaVuSans-Oblique-69" transform="translate(1521.38765 0.015625)"/>
     <use xlink:href="#DejaVuSans-2c" transform="translate(1549.170853 0.015625)"/>
     <use xlink:href="#DejaVuSans-Oblique-6a" transform="translate(1600.440384 0.015625)"/>
     <use xlink:href="#DejaVuSans-29" transform="translate(1628.223587 0.015625)"/>
    </g>
   </g>
  </g>
 </g>
</svg></g>
<text x="200" y="560" font-size="56" fill="#2C3E50"><tspan font-weight="bold">Base:</tspan></text>
<g fill="#3498DB" transform="translate(340, -56)"><svg xmlns:xlink="http://www.w3.org/1999/xlink" width="907.2pt" height="477.32pt" viewBox="0 0 907.2 477.32" xmlns="http://www.w3.org/2000/svg" version="1.1">
 <metadata>
  <rdf:RDF xmlns:dc="http://purl.org/dc/elements/1.1/" xmlns:cc="http://creativecommons.org/ns#" xmlns:rdf="http://www.w3.org/1999/02/22-rdf-syntax-ns#">
   <cc:Work>
    <dc:type rdf:resource="http://purl.org/dc/dcmitype/StillImage"/>
    <dc:date>2024-11-30T14:08:25.340503</dc:date>
    <dc:format>image/svg+xml</dc:format>
    <dc:creator>
     <cc:Agent>
      <dc:title>Matplotlib v3.9.2, https://matplotlib.org/</dc:title>
     </cc:Agent>
    </dc:creator>
   </cc:Work>
  </rdf:RDF>
 </metadata>
 <defs>
  <style type="text/css">*{stroke-linejoin: round; stroke-linecap: butt}</style>
 </defs>
 <g id="figure_1">
  <g id="patch_1">
   <path d="M 0 477.32 
L 907.2 477.32 
L 907.2 0 
L 0 0 
L 0 477.32 
z
" style="fill: none"/>
  </g>
  <g id="axes_1">
   <g id="text_1">
    <!-- $dp[0][0] = 1$ if no obstacle, else $0$ -->
    <g style="fill: #2c3e50" transform="translate(7.2 461.72) scale(0.4 -0.4)">
     <defs>
      <path id="DejaVuSans-Oblique-64" d="M 2675 525 
Q 2444 222 2128 65 
Q 1813 -91 1428 -91 
Q 903 -91 598 267 
Q 294 625 294 1247 
Q 294 1766 478 2236 
Q 663 2706 1013 3078 
Q 1244 3325 1534 3454 
Q 1825 3584 2144 3584 
Q 2481 3584 2739 3421 
Q 2997 3259 3138 2956 
L 3513 4863 
L 4091 4863 
L 3144 0 
L 2566 0 
L 2675 525 
z
M 891 1350 
Q 891 897 1095 644 
Q 1300 391 1663 391 
Q 1931 391 2161 520 
Q 2391 650 2566 903 
Q 2750 1166 2856 1509 
Q 2963 1853 2963 2188 
Q 2963 2622 2758 2865 
Q 2553 3109 2194 3109 
Q 1922 3109 1687 2981 
Q 1453 2853 1288 2613 
Q 1106 2353 998 2009 
Q 891 1666 891 1350 
z
" transform="scale(0.015625)"/>
      <path id="DejaVuSans-Oblique-70" d="M 3175 2156 
Q 3175 2616 2975 2859 
Q 2775 3103 2400 3103 
Q 2144 3103 1911 2972 
Q 1678 2841 1497 2591 
Q 1319 2344 1212 1994 
Q 1106 1644 1106 1300 
Q 1106 863 1306 627 
Q 1506 391 1875 391 
Q 2147 391 2380 519 
Q 2613 647 2778 891 
Q 2956 1147 3065 1494 
Q 3175 1841 3175 2156 
z
M 1394 2969 
Q 1625 3272 1939 3428 
Q 2253 3584 2638 3584 
Q 3175 3584 3472 3232 
Q 3769 2881 3769 2247 
Q 3769 1728 3584 1258 
Q 3400 788 3053 416 
Q 2822 169 2531 39 
Q 2241 -91 1919 -91 
Q 1547 -91 1294 64 
Q 1041 219 916 525 
L 556 -1331 
L -19 -1331 
L 922 3500 
L 1497 3500 
L 1394 2969 
z
" transform="scale(0.015625)"/>
      <path id="DejaVuSans-5b" d="M 550 4863 
L 1875 4863 
L 1875 4416 
L 1125 4416 
L 1125 -397 
L 1875 -397 
L 1875 -844 
L 550 -844 
L 550 4863 
z
" transform="scale(0.015625)"/>
      <path id="DejaVuSans-30" d="M 2034 4250 
Q 1547 4250 1301 3770 
Q 1056 3291 1056 2328 
Q 1056 1369 1301 889 
Q 1547 409 2034 409 
Q 2525 409 2770 889 
Q 3016 1369 3016 2328 
Q 3016 3291 2770 3770 
Q 2525 4250 2034 4250 
z
M 2034 4750 
Q 2819 4750 3233 4129 
Q 3647 3509 3647 2328 
Q 3647 1150 3233 529 
Q 2819 -91 2034 -91 
Q 1250 -91 836 529 
Q 422 1150 422 2328 
Q 422 3509 836 4129 
Q 1250 4750 2034 4750 
z
" transform="scale(0.015625)"/>
      <path id="DejaVuSans-5d" d="M 1947 4863 
L 1947 -844 
L 622 -844 
L 622 -397 
L 1369 -397 
L 1369 4416 
L 622 4416 
L 622 4863 
L 1947 4863 
z
" transform="scale(0.015625)"/>
      <path id="DejaVuSans-3d" d="M 678 2906 
L 4684 2906 
L 4684 2381 
L 678 2381 
L 678 2906 
z
M 678 1631 
L 4684 1631 
L 4684 1100 
L 678 1100 
L 678 1631 
z
" transform="scale(0.015625)"/>
      <path id="DejaVuSans-31" d="M 794 531 
L 1825 531 
L 1825 4091 
L 703 3866 
L 703 4441 
L 1819 4666 
L 2450 4666 
L 2450 531 
L 3481 531 
L 3481 0 
L 794 0 
L 794 531 
z
" transform="scale(0.015625)"/>
      <path id="Outfit-Regular-20" transform="scale(0.015625)"/>
      <path id="Outfit-Regular-69" d="M 429 0 
L 429 3040 
L 1005 3040 
L 1005 0 
L 429 0 
z
M 717 3648 
Q 557 3648 454 3753 
Q 352 3859 352 4019 
Q 352 4173 454 4278 
Q 557 4384 717 4384 
Q 877 4384 979 4278 
Q 1082 4173 1082 4019 
Q 1082 3859 979 3753 
Q 877 3648 717 3648 
z
" transform="scale(0.015625)"/>
      <path id="Outfit-Regular-66" d="M 858 0 
L 858 3494 
Q 858 3834 1005 4086 
Q 1152 4339 1411 4486 
Q 1670 4634 2016 4634 
Q 2278 4634 2470 4544 
Q 2662 4454 2822 4282 
L 2445 3910 
Q 2362 4000 2259 4048 
Q 2157 4096 2010 4096 
Q 1734 4096 1584 3936 
Q 1434 3776 1434 3494 
L 1434 0 
L 858 0 
z
M 109 2515 
L 109 3040 
L 2400 3040 
L 2400 2515 
L 109 2515 
z
" transform="scale(0.015625)"/>
      <path id="Outfit-Regular-6e" d="M 2573 0 
L 2573 1773 
Q 2573 2118 2355 2342 
Q 2138 2566 1792 2566 
Q 1562 2566 1382 2464 
Q 1203 2362 1100 2182 
Q 998 2003 998 1773 
L 762 1907 
Q 762 2253 915 2521 
Q 1069 2790 1344 2947 
Q 1619 3104 1965 3104 
Q 2310 3104 2576 2931 
Q 2842 2758 2995 2480 
Q 3149 2202 3149 1888 
L 3149 0 
L 2573 0 
z
M 422 0 
L 422 3040 
L 998 3040 
L 998 0 
L 422 0 
z
" transform="scale(0.015625)"/>
      <path id="Outfit-Regular-6f" d="M 1811 -64 
Q 1363 -64 1004 147 
Q 646 358 435 720 
Q 224 1082 224 1530 
Q 224 1971 435 2326 
Q 646 2682 1004 2893 
Q 1363 3104 1811 3104 
Q 2253 3104 2614 2896 
Q 2976 2688 3187 2329 
Q 3398 1971 3398 1530 
Q 3398 1082 3187 720 
Q 2976 358 2614 147 
Q 2253 -64 1811 -64 
z
M 1811 493 
Q 2099 493 2323 627 
Q 2547 762 2675 995 
Q 2803 1229 2803 1530 
Q 2803 1824 2672 2054 
Q 2541 2285 2320 2416 
Q 2099 2547 1811 2547 
Q 1523 2547 1299 2416 
Q 1075 2285 947 2054 
Q 819 1824 819 1530 
Q 819 1229 947 995 
Q 1075 762 1299 627 
Q 1523 493 1811 493 
z
" transform="scale(0.015625)"/>
      <path id="Outfit-Regular-62" d="M 2022 -64 
Q 1677 -64 1398 80 
Q 1120 224 953 480 
Q 787 736 768 1062 
L 768 1978 
Q 787 2310 956 2563 
Q 1126 2816 1404 2960 
Q 1683 3104 2022 3104 
Q 2438 3104 2774 2893 
Q 3110 2682 3302 2323 
Q 3494 1965 3494 1517 
Q 3494 1069 3302 710 
Q 3110 352 2774 144 
Q 2438 -64 2022 -64 
z
M 422 0 
L 422 4570 
L 998 4570 
L 998 2298 
L 890 1562 
L 998 819 
L 998 0 
L 422 0 
z
M 1926 480 
Q 2214 480 2432 614 
Q 2650 749 2778 982 
Q 2906 1216 2906 1523 
Q 2906 1824 2778 2061 
Q 2650 2298 2432 2429 
Q 2214 2560 1933 2560 
Q 1645 2560 1427 2429 
Q 1210 2298 1088 2061 
Q 966 1824 966 1517 
Q 966 1216 1084 982 
Q 1203 749 1424 614 
Q 1645 480 1926 480 
z
" transform="scale(0.015625)"/>
      <path id="Outfit-Regular-73" d="M 1389 -64 
Q 1133 -64 905 3 
Q 678 70 486 195 
Q 294 320 154 493 
L 525 864 
Q 691 659 908 560 
Q 1126 461 1395 461 
Q 1664 461 1811 553 
Q 1958 646 1958 813 
Q 1958 979 1840 1072 
Q 1722 1165 1536 1225 
Q 1350 1286 1142 1347 
Q 934 1408 748 1504 
Q 563 1600 444 1766 
Q 326 1933 326 2208 
Q 326 2483 460 2684 
Q 595 2886 835 2995 
Q 1075 3104 1414 3104 
Q 1773 3104 2051 2979 
Q 2330 2854 2509 2605 
L 2138 2234 
Q 2010 2400 1821 2489 
Q 1632 2579 1395 2579 
Q 1146 2579 1014 2492 
Q 883 2406 883 2253 
Q 883 2099 998 2016 
Q 1114 1933 1302 1875 
Q 1491 1818 1696 1757 
Q 1901 1696 2086 1593 
Q 2272 1491 2390 1318 
Q 2509 1146 2509 864 
Q 2509 435 2205 185 
Q 1901 -64 1389 -64 
z
" transform="scale(0.015625)"/>
      <path id="Outfit-Regular-74" d="M 890 0 
L 890 4314 
L 1466 4314 
L 1466 0 
L 890 0 
z
M 141 2515 
L 141 3040 
L 2214 3040 
L 2214 2515 
L 141 2515 
z
" transform="scale(0.015625)"/>
      <path id="Outfit-Regular-61" d="M 1715 -64 
Q 1299 -64 960 144 
Q 621 352 425 710 
Q 230 1069 230 1517 
Q 230 1965 425 2323 
Q 621 2682 957 2893 
Q 1293 3104 1715 3104 
Q 2061 3104 2333 2960 
Q 2605 2816 2771 2563 
Q 2938 2310 2957 1978 
L 2957 1062 
Q 2938 736 2774 480 
Q 2611 224 2339 80 
Q 2067 -64 1715 -64 
z
M 1811 480 
Q 2240 480 2502 771 
Q 2765 1062 2765 1517 
Q 2765 1830 2646 2064 
Q 2528 2298 2310 2429 
Q 2093 2560 1805 2560 
Q 1517 2560 1296 2425 
Q 1075 2291 950 2057 
Q 826 1824 826 1523 
Q 826 1216 950 982 
Q 1075 749 1299 614 
Q 1523 480 1811 480 
z
M 2726 0 
L 2726 819 
L 2835 1562 
L 2726 2298 
L 2726 3040 
L 3309 3040 
L 3309 0 
L 2726 0 
z
" transform="scale(0.015625)"/>
      <path id="Outfit-Regular-63" d="M 1811 -64 
Q 1363 -64 1001 147 
Q 640 358 432 720 
Q 224 1082 224 1523 
Q 224 1971 432 2329 
Q 640 2688 1001 2896 
Q 1363 3104 1811 3104 
Q 2163 3104 2464 2973 
Q 2765 2842 2982 2592 
L 2598 2208 
Q 2458 2374 2256 2460 
Q 2054 2547 1811 2547 
Q 1523 2547 1299 2416 
Q 1075 2285 947 2054 
Q 819 1824 819 1523 
Q 819 1222 947 992 
Q 1075 762 1299 627 
Q 1523 493 1811 493 
Q 2054 493 2256 579 
Q 2458 666 2605 832 
L 2982 448 
Q 2771 205 2467 70 
Q 2163 -64 1811 -64 
z
" transform="scale(0.015625)"/>
      <path id="Outfit-Regular-6c" d="M 422 0 
L 422 4570 
L 998 4570 
L 998 0 
L 422 0 
z
" transform="scale(0.015625)"/>
      <path id="Outfit-Regular-65" d="M 1830 -64 
Q 1376 -64 1011 144 
Q 646 352 435 710 
Q 224 1069 224 1523 
Q 224 1971 432 2329 
Q 640 2688 995 2896 
Q 1350 3104 1792 3104 
Q 2214 3104 2537 2912 
Q 2861 2720 3043 2381 
Q 3226 2042 3226 1613 
Q 3226 1549 3219 1475 
Q 3213 1402 3194 1306 
L 627 1306 
L 627 1786 
L 2886 1786 
L 2675 1600 
Q 2675 1907 2566 2121 
Q 2458 2336 2259 2454 
Q 2061 2573 1779 2573 
Q 1485 2573 1261 2445 
Q 1037 2317 915 2086 
Q 794 1856 794 1542 
Q 794 1222 922 982 
Q 1050 742 1286 611 
Q 1523 480 1830 480 
Q 2086 480 2300 569 
Q 2515 659 2669 838 
L 3040 461 
Q 2822 205 2505 70 
Q 2189 -64 1830 -64 
z
" transform="scale(0.015625)"/>
      <path id="Outfit-Regular-2c" d="M 454 -704 
L 851 58 
L 1056 109 
Q 1024 38 976 -6 
Q 928 -51 858 -51 
Q 723 -51 611 61 
Q 499 173 499 339 
Q 499 525 620 649 
Q 742 774 928 774 
Q 1094 774 1222 649 
Q 1350 525 1350 339 
Q 1350 269 1321 169 
Q 1293 70 1210 -83 
L 787 -883 
L 454 -704 
z
" transform="scale(0.015625)"/>
     </defs>
     <use xlink:href="#DejaVuSans-Oblique-64" transform="translate(0 0.015625)"/>
     <use xlink:href="#DejaVuSans-Oblique-70" transform="translate(63.476562 0.015625)"/>
     <use xlink:href="#DejaVuSans-5b" transform="translate(126.953125 0.015625)"/>
     <use xlink:href="#DejaVuSans-30" transform="translate(165.966797 0.015625)"/>
     <use xlink:href="#DejaVuSans-5d" transform="translate(229.589844 0.015625)"/>
     <use xlink:href="#DejaVuSans-5b" transform="translate(268.603516 0.015625)"/>
     <use xlink:href="#DejaVuSans-30" transform="translate(307.617188 0.015625)"/>
     <use xlink:href="#DejaVuSans-5d" transform="translate(371.240234 0.015625)"/>
     <use xlink:href="#DejaVuSans-3d" transform="translate(429.736328 0.015625)"/>
     <use xlink:href="#DejaVuSans-31" transform="translate(533.007812 0.015625)"/>
     <use xlink:href="#Outfit-Regular-20" transform="translate(596.630859 0.015625)"/>
     <use xlink:href="#Outfit-Regular-69" transform="translate(617.430847 0.015625)"/>
     <use xlink:href="#Outfit-Regular-66" transform="translate(639.830841 0.015625)"/>
     <use xlink:href="#Outfit-Regular-20" transform="translate(679.730835 0.015625)"/>
     <use xlink:href="#Outfit-Regular-6e" transform="translate(700.530823 0.015625)"/>
     <use xlink:href="#Outfit-Regular-6f" transform="translate(755.330811 0.015625)"/>
     <use xlink:href="#Outfit-Regular-20" transform="translate(811.930801 0.015625)"/>
     <use xlink:href="#Outfit-Regular-6f" transform="translate(832.730789 0.015625)"/>
     <use xlink:href="#Outfit-Regular-62" transform="translate(889.33078 0.015625)"/>
     <use xlink:href="#Outfit-Regular-73" transform="translate(947.530777 0.015625)"/>
     <use xlink:href="#Outfit-Regular-74" transform="translate(990.230774 0.015625)"/>
     <use xlink:href="#Outfit-Regular-61" transform="translate(1027.030762 0.015625)"/>
     <use xlink:href="#Outfit-Regular-63" transform="translate(1085.230759 0.015625)"/>
     <use xlink:href="#Outfit-Regular-6c" transform="translate(1134.130753 0.015625)"/>
     <use xlink:href="#Outfit-Regular-65" transform="translate(1156.33075 0.015625)"/>
     <use xlink:href="#Outfit-Regular-2c" transform="translate(1209.93074 0.015625)"/>
     <use xlink:href="#Outfit-Regular-20" transform="translate(1237.430725 0.015625)"/>
     <use xlink:href="#Outfit-Regular-65" transform="translate(1258.230713 0.015625)"/>
     <use xlink:href="#Outfit-Regular-6c" transform="translate(1311.830704 0.015625)"/>
     <use xlink:href="#Outfit-Regular-73" transform="translate(1334.030701 0.015625)"/>
     <use xlink:href="#Outfit-Regular-65" transform="translate(1376.730698 0.015625)"/>
     <use xlink:href="#Outfit-Regular-20" transform="translate(1430.330688 0.015625)"/>
     <use xlink:href="#DejaVuSans-30" transform="translate(1451.130676 0.015625)"/>
    </g>
   </g>
  </g>
 </g>
</svg></g>
<text x="200" y="680" font-size="56" fill="#2C3E50"><tspan font-weight="bold">Induction:</tspan></text>
<g transform="translate(460, 64)"><svg xmlns:xlink="http://www.w3.org/1999/xlink" width="1035.6pt" height="477.32pt" viewBox="0 0 1035.6 477.32" xmlns="http://www.w3.org/2000/svg" version="1.1">
 <metadata>
  <rdf:RDF xmlns:dc="http://purl.org/dc/elements/1.1/" xmlns:cc="http://creativecommons.org/ns#" xmlns:rdf="http://www.w3.org/1999/02/22-rdf-syntax-ns#">
   <cc:Work>
    <dc:type rdf:resource="http://purl.org/dc/dcmitype/StillImage"/>
    <dc:date>2024-11-30T14:08:25.351267</dc:date>
    <dc:format>image/svg+xml</dc:format>
    <dc:creator>
     <cc:Agent>
      <dc:title>Matplotlib v3.9.2, https://matplotlib.org/</dc:title>
     </cc:Agent>
    </dc:creator>
   </cc:Work>
  </rdf:RDF>
 </metadata>
 <defs>
  <style type="text/css">*{stroke-linejoin: round; stroke-linecap: butt}</style>
 </defs>
 <g id="figure_1">
  <g id="patch_1">
   <path d="M 0 477.32 
L 1035.6 477.32 
L 1035.6 0 
L 0 0 
L 0 477.32 
z
" style="fill: none"/>
  </g>
  <g id="axes_1">
   <g id="text_1">
    <!-- $dp[i][j] = dp[i-1][j] + dp[i][j-1]$ if no obstacle, else $0$ -->
    <g style="fill: #2c3e50" transform="translate(7.2 461.72) scale(0.4 -0.4)">
     <defs>
      <path id="DejaVuSans-Oblique-64" d="M 2675 525 
Q 2444 222 2128 65 
Q 1813 -91 1428 -91 
Q 903 -91 598 267 
Q 294 625 294 1247 
Q 294 1766 478 2236 
Q 663 2706 1013 3078 
Q 1244 3325 1534 3454 
Q 1825 3584 2144 3584 
Q 2481 3584 2739 3421 
Q 2997 3259 3138 2956 
L 3513 4863 
L 4091 4863 
L 3144 0 
L 2566 0 
L 2675 525 
z
M 891 1350 
Q 891 897 1095 644 
Q 1300 391 1663 391 
Q 1931 391 2161 520 
Q 2391 650 2566 903 
Q 2750 1166 2856 1509 
Q 2963 1853 2963 2188 
Q 2963 2622 2758 2865 
Q 2553 3109 2194 3109 
Q 1922 3109 1687 2981 
Q 1453 2853 1288 2613 
Q 1106 2353 998 2009 
Q 891 1666 891 1350 
z
" transform="scale(0.015625)"/>
      <path id="DejaVuSans-Oblique-70" d="M 3175 2156 
Q 3175 2616 2975 2859 
Q 2775 3103 2400 3103 
Q 2144 3103 1911 2972 
Q 1678 2841 1497 2591 
Q 1319 2344 1212 1994 
Q 1106 1644 1106 1300 
Q 1106 863 1306 627 
Q 1506 391 1875 391 
Q 2147 391 2380 519 
Q 2613 647 2778 891 
Q 2956 1147 3065 1494 
Q 3175 1841 3175 2156 
z
M 1394 2969 
Q 1625 3272 1939 3428 
Q 2253 3584 2638 3584 
Q 3175 3584 3472 3232 
Q 3769 2881 3769 2247 
Q 3769 1728 3584 1258 
Q 3400 788 3053 416 
Q 2822 169 2531 39 
Q 2241 -91 1919 -91 
Q 1547 -91 1294 64 
Q 1041 219 916 525 
L 556 -1331 
L -19 -1331 
L 922 3500 
L 1497 3500 
L 1394 2969 
z
" transform="scale(0.015625)"/>
      <path id="DejaVuSans-5b" d="M 550 4863 
L 1875 4863 
L 1875 4416 
L 1125 4416 
L 1125 -397 
L 1875 -397 
L 1875 -844 
L 550 -844 
L 550 4863 
z
" transform="scale(0.015625)"/>
      <path id="DejaVuSans-Oblique-69" d="M 1172 4863 
L 1747 4863 
L 1606 4134 
L 1031 4134 
L 1172 4863 
z
M 909 3500 
L 1484 3500 
L 800 0 
L 225 0 
L 909 3500 
z
" transform="scale(0.015625)"/>
      <path id="DejaVuSans-5d" d="M 1947 4863 
L 1947 -844 
L 622 -844 
L 622 -397 
L 1369 -397 
L 1369 4416 
L 622 4416 
L 622 4863 
L 1947 4863 
z
" transform="scale(0.015625)"/>
      <path id="DejaVuSans-Oblique-6a" d="M 928 3500 
L 1503 3500 
L 813 -63 
L 809 -78 
Q 694 -675 544 -897 
Q 403 -1106 132 -1218 
Q -138 -1331 -506 -1331 
L -722 -1331 
L -628 -844 
L -481 -844 
Q -144 -844 -1 -703 
Q 141 -563 238 -63 
L 928 3500 
z
M 1197 4863 
L 1772 4863 
L 1631 4134 
L 1056 4134 
L 1197 4863 
z
" transform="scale(0.015625)"/>
      <path id="DejaVuSans-3d" d="M 678 2906 
L 4684 2906 
L 4684 2381 
L 678 2381 
L 678 2906 
z
M 678 1631 
L 4684 1631 
L 4684 1100 
L 678 1100 
L 678 1631 
z
" transform="scale(0.015625)"/>
      <path id="DejaVuSans-2212" d="M 678 2272 
L 4684 2272 
L 4684 1741 
L 678 1741 
L 678 2272 
z
" transform="scale(0.015625)"/>
      <path id="DejaVuSans-31" d="M 794 531 
L 1825 531 
L 1825 4091 
L 703 3866 
L 703 4441 
L 1819 4666 
L 2450 4666 
L 2450 531 
L 3481 531 
L 3481 0 
L 794 0 
L 794 531 
z
" transform="scale(0.015625)"/>
      <path id="DejaVuSans-2b" d="M 2944 4013 
L 2944 2272 
L 4684 2272 
L 4684 1741 
L 2944 1741 
L 2944 0 
L 2419 0 
L 2419 1741 
L 678 1741 
L 678 2272 
L 2419 2272 
L 2419 4013 
L 2944 4013 
z
" transform="scale(0.015625)"/>
      <path id="Outfit-Regular-20" transform="scale(0.015625)"/>
      <path id="Outfit-Regular-69" d="M 429 0 
L 429 3040 
L 1005 3040 
L 1005 0 
L 429 0 
z
M 717 3648 
Q 557 3648 454 3753 
Q 352 3859 352 4019 
Q 352 4173 454 4278 
Q 557 4384 717 4384 
Q 877 4384 979 4278 
Q 1082 4173 1082 4019 
Q 1082 3859 979 3753 
Q 877 3648 717 3648 
z
" transform="scale(0.015625)"/>
      <path id="Outfit-Regular-66" d="M 858 0 
L 858 3494 
Q 858 3834 1005 4086 
Q 1152 4339 1411 4486 
Q 1670 4634 2016 4634 
Q 2278 4634 2470 4544 
Q 2662 4454 2822 4282 
L 2445 3910 
Q 2362 4000 2259 4048 
Q 2157 4096 2010 4096 
Q 1734 4096 1584 3936 
Q 1434 3776 1434 3494 
L 1434 0 
L 858 0 
z
M 109 2515 
L 109 3040 
L 2400 3040 
L 2400 2515 
L 109 2515 
z
" transform="scale(0.015625)"/>
      <path id="Outfit-Regular-6e" d="M 2573 0 
L 2573 1773 
Q 2573 2118 2355 2342 
Q 2138 2566 1792 2566 
Q 1562 2566 1382 2464 
Q 1203 2362 1100 2182 
Q 998 2003 998 1773 
L 762 1907 
Q 762 2253 915 2521 
Q 1069 2790 1344 2947 
Q 1619 3104 1965 3104 
Q 2310 3104 2576 2931 
Q 2842 2758 2995 2480 
Q 3149 2202 3149 1888 
L 3149 0 
L 2573 0 
z
M 422 0 
L 422 3040 
L 998 3040 
L 998 0 
L 422 0 
z
" transform="scale(0.015625)"/>
      <path id="Outfit-Regular-6f" d="M 1811 -64 
Q 1363 -64 1004 147 
Q 646 358 435 720 
Q 224 1082 224 1530 
Q 224 1971 435 2326 
Q 646 2682 1004 2893 
Q 1363 3104 1811 3104 
Q 2253 3104 2614 2896 
Q 2976 2688 3187 2329 
Q 3398 1971 3398 1530 
Q 3398 1082 3187 720 
Q 2976 358 2614 147 
Q 2253 -64 1811 -64 
z
M 1811 493 
Q 2099 493 2323 627 
Q 2547 762 2675 995 
Q 2803 1229 2803 1530 
Q 2803 1824 2672 2054 
Q 2541 2285 2320 2416 
Q 2099 2547 1811 2547 
Q 1523 2547 1299 2416 
Q 1075 2285 947 2054 
Q 819 1824 819 1530 
Q 819 1229 947 995 
Q 1075 762 1299 627 
Q 1523 493 1811 493 
z
" transform="scale(0.015625)"/>
      <path id="Outfit-Regular-62" d="M 2022 -64 
Q 1677 -64 1398 80 
Q 1120 224 953 480 
Q 787 736 768 1062 
L 768 1978 
Q 787 2310 956 2563 
Q 1126 2816 1404 2960 
Q 1683 3104 2022 3104 
Q 2438 3104 2774 2893 
Q 3110 2682 3302 2323 
Q 3494 1965 3494 1517 
Q 3494 1069 3302 710 
Q 3110 352 2774 144 
Q 2438 -64 2022 -64 
z
M 422 0 
L 422 4570 
L 998 4570 
L 998 2298 
L 890 1562 
L 998 819 
L 998 0 
L 422 0 
z
M 1926 480 
Q 2214 480 2432 614 
Q 2650 749 2778 982 
Q 2906 1216 2906 1523 
Q 2906 1824 2778 2061 
Q 2650 2298 2432 2429 
Q 2214 2560 1933 2560 
Q 1645 2560 1427 2429 
Q 1210 2298 1088 2061 
Q 966 1824 966 1517 
Q 966 1216 1084 982 
Q 1203 749 1424 614 
Q 1645 480 1926 480 
z
" transform="scale(0.015625)"/>
      <path id="Outfit-Regular-73" d="M 1389 -64 
Q 1133 -64 905 3 
Q 678 70 486 195 
Q 294 320 154 493 
L 525 864 
Q 691 659 908 560 
Q 1126 461 1395 461 
Q 1664 461 1811 553 
Q 1958 646 1958 813 
Q 1958 979 1840 1072 
Q 1722 1165 1536 1225 
Q 1350 1286 1142 1347 
Q 934 1408 748 1504 
Q 563 1600 444 1766 
Q 326 1933 326 2208 
Q 326 2483 460 2684 
Q 595 2886 835 2995 
Q 1075 3104 1414 3104 
Q 1773 3104 2051 2979 
Q 2330 2854 2509 2605 
L 2138 2234 
Q 2010 2400 1821 2489 
Q 1632 2579 1395 2579 
Q 1146 2579 1014 2492 
Q 883 2406 883 2253 
Q 883 2099 998 2016 
Q 1114 1933 1302 1875 
Q 1491 1818 1696 1757 
Q 1901 1696 2086 1593 
Q 2272 1491 2390 1318 
Q 2509 1146 2509 864 
Q 2509 435 2205 185 
Q 1901 -64 1389 -64 
z
" transform="scale(0.015625)"/>
      <path id="Outfit-Regular-74" d="M 890 0 
L 890 4314 
L 1466 4314 
L 1466 0 
L 890 0 
z
M 141 2515 
L 141 3040 
L 2214 3040 
L 2214 2515 
L 141 2515 
z
" transform="scale(0.015625)"/>
      <path id="Outfit-Regular-61" d="M 1715 -64 
Q 1299 -64 960 144 
Q 621 352 425 710 
Q 230 1069 230 1517 
Q 230 1965 425 2323 
Q 621 2682 957 2893 
Q 1293 3104 1715 3104 
Q 2061 3104 2333 2960 
Q 2605 2816 2771 2563 
Q 2938 2310 2957 1978 
L 2957 1062 
Q 2938 736 2774 480 
Q 2611 224 2339 80 
Q 2067 -64 1715 -64 
z
M 1811 480 
Q 2240 480 2502 771 
Q 2765 1062 2765 1517 
Q 2765 1830 2646 2064 
Q 2528 2298 2310 2429 
Q 2093 2560 1805 2560 
Q 1517 2560 1296 2425 
Q 1075 2291 950 2057 
Q 826 1824 826 1523 
Q 826 1216 950 982 
Q 1075 749 1299 614 
Q 1523 480 1811 480 
z
M 2726 0 
L 2726 819 
L 2835 1562 
L 2726 2298 
L 2726 3040 
L 3309 3040 
L 3309 0 
L 2726 0 
z
" transform="scale(0.015625)"/>
      <path id="Outfit-Regular-63" d="M 1811 -64 
Q 1363 -64 1001 147 
Q 640 358 432 720 
Q 224 1082 224 1523 
Q 224 1971 432 2329 
Q 640 2688 1001 2896 
Q 1363 3104 1811 3104 
Q 2163 3104 2464 2973 
Q 2765 2842 2982 2592 
L 2598 2208 
Q 2458 2374 2256 2460 
Q 2054 2547 1811 2547 
Q 1523 2547 1299 2416 
Q 1075 2285 947 2054 
Q 819 1824 819 1523 
Q 819 1222 947 992 
Q 1075 762 1299 627 
Q 1523 493 1811 493 
Q 2054 493 2256 579 
Q 2458 666 2605 832 
L 2982 448 
Q 2771 205 2467 70 
Q 2163 -64 1811 -64 
z
" transform="scale(0.015625)"/>
      <path id="Outfit-Regular-6c" d="M 422 0 
L 422 4570 
L 998 4570 
L 998 0 
L 422 0 
z
" transform="scale(0.015625)"/>
      <path id="Outfit-Regular-65" d="M 1830 -64 
Q 1376 -64 1011 144 
Q 646 352 435 710 
Q 224 1069 224 1523 
Q 224 1971 432 2329 
Q 640 2688 995 2896 
Q 1350 3104 1792 3104 
Q 2214 3104 2537 2912 
Q 2861 2720 3043 2381 
Q 3226 2042 3226 1613 
Q 3226 1549 3219 1475 
Q 3213 1402 3194 1306 
L 627 1306 
L 627 1786 
L 2886 1786 
L 2675 1600 
Q 2675 1907 2566 2121 
Q 2458 2336 2259 2454 
Q 2061 2573 1779 2573 
Q 1485 2573 1261 2445 
Q 1037 2317 915 2086 
Q 794 1856 794 1542 
Q 794 1222 922 982 
Q 1050 742 1286 611 
Q 1523 480 1830 480 
Q 2086 480 2300 569 
Q 2515 659 2669 838 
L 3040 461 
Q 2822 205 2505 70 
Q 2189 -64 1830 -64 
z
" transform="scale(0.015625)"/>
      <path id="Outfit-Regular-2c" d="M 454 -704 
L 851 58 
L 1056 109 
Q 1024 38 976 -6 
Q 928 -51 858 -51 
Q 723 -51 611 61 
Q 499 173 499 339 
Q 499 525 620 649 
Q 742 774 928 774 
Q 1094 774 1222 649 
Q 1350 525 1350 339 
Q 1350 269 1321 169 
Q 1293 70 1210 -83 
L 787 -883 
L 454 -704 
z
" transform="scale(0.015625)"/>
      <path id="DejaVuSans-30" d="M 2034 4250 
Q 1547 4250 1301 3770 
Q 1056 3291 1056 2328 
Q 1056 1369 1301 889 
Q 1547 409 2034 409 
Q 2525 409 2770 889 
Q 3016 1369 3016 2328 
Q 3016 3291 2770 3770 
Q 2525 4250 2034 4250 
z
M 2034 4750 
Q 2819 4750 3233 4129 
Q 3647 3509 3647 2328 
Q 3647 1150 3233 529 
Q 2819 -91 2034 -91 
Q 1250 -91 836 529 
Q 422 1150 422 2328 
Q 422 3509 836 4129 
Q 1250 4750 2034 4750 
z
" transform="scale(0.015625)"/>
     </defs>
     <use xlink:href="#DejaVuSans-Oblique-64" transform="translate(0 0.015625)"/>
     <use xlink:href="#DejaVuSans-Oblique-70" transform="translate(63.476562 0.015625)"/>
     <use xlink:href="#DejaVuSans-5b" transform="translate(126.953125 0.015625)"/>
     <use xlink:href="#DejaVuSans-Oblique-69" transform="translate(165.966797 0.015625)"/>
     <use xlink:href="#DejaVuSans-5d" transform="translate(193.75 0.015625)"/>
     <use xlink:href="#DejaVuSans-5b" transform="translate(232.763672 0.015625)"/>
     <use xlink:href="#DejaVuSans-Oblique-6a" transform="translate(271.777344 0.015625)"/>
     <use xlink:href="#DejaVuSans-5d" transform="translate(299.560547 0.015625)"/>
     <use xlink:href="#DejaVuSans-3d" transform="translate(358.056641 0.015625)"/>
     <use xlink:href="#DejaVuSans-Oblique-64" transform="translate(461.328125 0.015625)"/>
     <use xlink:href="#DejaVuSans-Oblique-70" transform="translate(524.804688 0.015625)"/>
     <use xlink:href="#DejaVuSans-5b" transform="translate(588.28125 0.015625)"/>
     <use xlink:href="#DejaVuSans-Oblique-69" transform="translate(627.294922 0.015625)"/>
     <use xlink:href="#DejaVuSans-2212" transform="translate(674.560547 0.015625)"/>
     <use xlink:href="#DejaVuSans-31" transform="translate(777.832031 0.015625)"/>
     <use xlink:href="#DejaVuSans-5d" transform="translate(841.455078 0.015625)"/>
     <use xlink:href="#DejaVuSans-5b" transform="translate(880.46875 0.015625)"/>
     <use xlink:href="#DejaVuSans-Oblique-6a" transform="translate(919.482422 0.015625)"/>
     <use xlink:href="#DejaVuSans-5d" transform="translate(947.265625 0.015625)"/>
     <use xlink:href="#DejaVuSans-2b" transform="translate(1005.761719 0.015625)"/>
     <use xlink:href="#DejaVuSans-Oblique-64" transform="translate(1109.033203 0.015625)"/>
     <use xlink:href="#DejaVuSans-Oblique-70" transform="translate(1172.509766 0.015625)"/>
     <use xlink:href="#DejaVuSans-5b" transform="translate(1235.986328 0.015625)"/>
     <use xlink:href="#DejaVuSans-Oblique-69" transform="translate(1275 0.015625)"/>
     <use xlink:href="#DejaVuSans-5d" transform="translate(1302.783203 0.015625)"/>
     <use xlink:href="#DejaVuSans-5b" transform="translate(1341.796875 0.015625)"/>
     <use xlink:href="#DejaVuSans-Oblique-6a" transform="translate(1380.810547 0.015625)"/>
     <use xlink:href="#DejaVuSans-2212" transform="translate(1428.076172 0.015625)"/>
     <use xlink:href="#DejaVuSans-31" transform="translate(1531.347656 0.015625)"/>
     <use xlink:href="#DejaVuSans-5d" transform="translate(1594.970703 0.015625)"/>
     <use xlink:href="#Outfit-Regular-20" transform="translate(1633.984375 0.015625)"/>
     <use xlink:href="#Outfit-Regular-69" transform="translate(1654.784363 0.015625)"/>
     <use xlink:href="#Outfit-Regular-66" transform="translate(1677.184357 0.015625)"/>
     <use xlink:href="#Outfit-Regular-20" transform="translate(1717.084351 0.015625)"/>
     <use xlink:href="#Outfit-Regular-6e" transform="translate(1737.884338 0.015625)"/>
     <use xlink:href="#Outfit-Regular-6f" transform="translate(1792.684326 0.015625)"/>
     <use xlink:href="#Outfit-Regular-20" transform="translate(1849.284317 0.015625)"/>
     <use xlink:href="#Outfit-Regular-6f" transform="translate(1870.084305 0.015625)"/>
     <use xlink:href="#Outfit-Regular-62" transform="translate(1926.684296 0.015625)"/>
     <use xlink:href="#Outfit-Regular-73" transform="translate(1984.884293 0.015625)"/>
     <use xlink:href="#Outfit-Regular-74" transform="translate(2027.58429 0.015625)"/>
     <use xlink:href="#Outfit-Regular-61" transform="translate(2064.384277 0.015625)"/>
     <use xlink:href="#Outfit-Regular-63" transform="translate(2122.584274 0.015625)"/>
     <use xlink:href="#Outfit-Regular-6c" transform="translate(2171.484268 0.015625)"/>
     <use xlink:href="#Outfit-Regular-65" transform="translate(2193.684265 0.015625)"/>
     <use xlink:href="#Outfit-Regular-2c" transform="translate(2247.284256 0.015625)"/>
     <use xlink:href="#Outfit-Regular-20" transform="translate(2274.784241 0.015625)"/>
     <use xlink:href="#Outfit-Regular-65" transform="translate(2295.584229 0.015625)"/>
     <use xlink:href="#Outfit-Regular-6c" transform="translate(2349.184219 0.015625)"/>
     <use xlink:href="#Outfit-Regular-73" transform="translate(2371.384216 0.015625)"/>
     <use xlink:href="#Outfit-Regular-65" transform="translate(2414.084213 0.015625)"/>
     <use xlink:href="#Outfit-Regular-20" transform="translate(2467.684204 0.015625)"/>
     <use xlink:href="#DejaVuSans-30" transform="translate(2488.484192 0.015625)"/>
    </g>
   </g>
  </g>
 </g>
</svg></g>
<text x="200" y="800" font-size="56" fill="#2C3E50"><tspan font-weight="bold">Intuition:</tspan></text>
<g transform="translate(432, 184)"><svg xmlns:xlink="http://www.w3.org/1999/xlink" width="907.2pt" height="476.3825pt" viewBox="0 0 907.2 476.3825" xmlns="http://www.w3.org/2000/svg" version="1.1">
 <metadata>
  <rdf:RDF xmlns:dc="http://purl.org/dc/elements/1.1/" xmlns:cc="http://creativecommons.org/ns#" xmlns:rdf="http://www.w3.org/1999/02/22-rdf-syntax-ns#">
   <cc:Work>
    <dc:type rdf:resource="http://purl.org/dc/dcmitype/StillImage"/>
    <dc:date>2024-11-30T14:08:25.360727</dc:date>
    <dc:format>image/svg+xml</dc:format>
    <dc:creator>
     <cc:Agent>
      <dc:title>Matplotlib v3.9.2, https://matplotlib.org/</dc:title>
     </cc:Agent>
    </dc:creator>
   </cc:Work>
  </rdf:RDF>
 </metadata>
 <defs>
  <style type="text/css">*{stroke-linejoin: round; stroke-linecap: butt}</style>
 </defs>
 <g id="figure_1">
  <g id="patch_1">
   <path d="M 0 476.3825 
L 907.2 476.3825 
L 907.2 0 
L 0 0 
L 0 476.3825 
z
" style="fill: none"/>
  </g>
  <g id="axes_1">
   <g id="text_1">
    <!-- Paths to cell are sum of paths from above and left -->
    <g style="fill: #2c3e50" transform="translate(7.2 461.22) scale(0.4 -0.4)">
     <defs>
      <path id="Outfit-Regular-50" d="M 928 1728 
L 928 2253 
L 2138 2253 
Q 2387 2253 2582 2355 
Q 2778 2458 2890 2643 
Q 3002 2829 3002 3085 
Q 3002 3341 2890 3526 
Q 2778 3712 2582 3814 
Q 2387 3917 2138 3917 
L 928 3917 
L 928 4442 
L 2176 4442 
Q 2586 4442 2909 4275 
Q 3232 4109 3421 3805 
Q 3610 3501 3610 3085 
Q 3610 2675 3421 2371 
Q 3232 2067 2909 1897 
Q 2586 1728 2176 1728 
L 928 1728 
z
M 525 0 
L 525 4442 
L 1126 4442 
L 1126 0 
L 525 0 
z
" transform="scale(0.015625)"/>
      <path id="Outfit-Regular-61" d="M 1715 -64 
Q 1299 -64 960 144 
Q 621 352 425 710 
Q 230 1069 230 1517 
Q 230 1965 425 2323 
Q 621 2682 957 2893 
Q 1293 3104 1715 3104 
Q 2061 3104 2333 2960 
Q 2605 2816 2771 2563 
Q 2938 2310 2957 1978 
L 2957 1062 
Q 2938 736 2774 480 
Q 2611 224 2339 80 
Q 2067 -64 1715 -64 
z
M 1811 480 
Q 2240 480 2502 771 
Q 2765 1062 2765 1517 
Q 2765 1830 2646 2064 
Q 2528 2298 2310 2429 
Q 2093 2560 1805 2560 
Q 1517 2560 1296 2425 
Q 1075 2291 950 2057 
Q 826 1824 826 1523 
Q 826 1216 950 982 
Q 1075 749 1299 614 
Q 1523 480 1811 480 
z
M 2726 0 
L 2726 819 
L 2835 1562 
L 2726 2298 
L 2726 3040 
L 3309 3040 
L 3309 0 
L 2726 0 
z
" transform="scale(0.015625)"/>
      <path id="Outfit-Regular-74" d="M 890 0 
L 890 4314 
L 1466 4314 
L 1466 0 
L 890 0 
z
M 141 2515 
L 141 3040 
L 2214 3040 
L 2214 2515 
L 141 2515 
z
" transform="scale(0.015625)"/>
      <path id="Outfit-Regular-68" d="M 2573 0 
L 2573 1773 
Q 2573 2118 2355 2342 
Q 2138 2566 1792 2566 
Q 1562 2566 1382 2464 
Q 1203 2362 1100 2182 
Q 998 2003 998 1773 
L 762 1907 
Q 762 2253 915 2521 
Q 1069 2790 1344 2947 
Q 1619 3104 1965 3104 
Q 2310 3104 2576 2950 
Q 2842 2797 2995 2521 
Q 3149 2246 3149 1888 
L 3149 0 
L 2573 0 
z
M 422 0 
L 422 4570 
L 998 4570 
L 998 0 
L 422 0 
z
" transform="scale(0.015625)"/>
      <path id="Outfit-Regular-73" d="M 1389 -64 
Q 1133 -64 905 3 
Q 678 70 486 195 
Q 294 320 154 493 
L 525 864 
Q 691 659 908 560 
Q 1126 461 1395 461 
Q 1664 461 1811 553 
Q 1958 646 1958 813 
Q 1958 979 1840 1072 
Q 1722 1165 1536 1225 
Q 1350 1286 1142 1347 
Q 934 1408 748 1504 
Q 563 1600 444 1766 
Q 326 1933 326 2208 
Q 326 2483 460 2684 
Q 595 2886 835 2995 
Q 1075 3104 1414 3104 
Q 1773 3104 2051 2979 
Q 2330 2854 2509 2605 
L 2138 2234 
Q 2010 2400 1821 2489 
Q 1632 2579 1395 2579 
Q 1146 2579 1014 2492 
Q 883 2406 883 2253 
Q 883 2099 998 2016 
Q 1114 1933 1302 1875 
Q 1491 1818 1696 1757 
Q 1901 1696 2086 1593 
Q 2272 1491 2390 1318 
Q 2509 1146 2509 864 
Q 2509 435 2205 185 
Q 1901 -64 1389 -64 
z
" transform="scale(0.015625)"/>
      <path id="Outfit-Regular-20" transform="scale(0.015625)"/>
      <path id="Outfit-Regular-6f" d="M 1811 -64 
Q 1363 -64 1004 147 
Q 646 358 435 720 
Q 224 1082 224 1530 
Q 224 1971 435 2326 
Q 646 2682 1004 2893 
Q 1363 3104 1811 3104 
Q 2253 3104 2614 2896 
Q 2976 2688 3187 2329 
Q 3398 1971 3398 1530 
Q 3398 1082 3187 720 
Q 2976 358 2614 147 
Q 2253 -64 1811 -64 
z
M 1811 493 
Q 2099 493 2323 627 
Q 2547 762 2675 995 
Q 2803 1229 2803 1530 
Q 2803 1824 2672 2054 
Q 2541 2285 2320 2416 
Q 2099 2547 1811 2547 
Q 1523 2547 1299 2416 
Q 1075 2285 947 2054 
Q 819 1824 819 1530 
Q 819 1229 947 995 
Q 1075 762 1299 627 
Q 1523 493 1811 493 
z
" transform="scale(0.015625)"/>
      <path id="Outfit-Regular-63" d="M 1811 -64 
Q 1363 -64 1001 147 
Q 640 358 432 720 
Q 224 1082 224 1523 
Q 224 1971 432 2329 
Q 640 2688 1001 2896 
Q 1363 3104 1811 3104 
Q 2163 3104 2464 2973 
Q 2765 2842 2982 2592 
L 2598 2208 
Q 2458 2374 2256 2460 
Q 2054 2547 1811 2547 
Q 1523 2547 1299 2416 
Q 1075 2285 947 2054 
Q 819 1824 819 1523 
Q 819 1222 947 992 
Q 1075 762 1299 627 
Q 1523 493 1811 493 
Q 2054 493 2256 579 
Q 2458 666 2605 832 
L 2982 448 
Q 2771 205 2467 70 
Q 2163 -64 1811 -64 
z
" transform="scale(0.015625)"/>
      <path id="Outfit-Regular-65" d="M 1830 -64 
Q 1376 -64 1011 144 
Q 646 352 435 710 
Q 224 1069 224 1523 
Q 224 1971 432 2329 
Q 640 2688 995 2896 
Q 1350 3104 1792 3104 
Q 2214 3104 2537 2912 
Q 2861 2720 3043 2381 
Q 3226 2042 3226 1613 
Q 3226 1549 3219 1475 
Q 3213 1402 3194 1306 
L 627 1306 
L 627 1786 
L 2886 1786 
L 2675 1600 
Q 2675 1907 2566 2121 
Q 2458 2336 2259 2454 
Q 2061 2573 1779 2573 
Q 1485 2573 1261 2445 
Q 1037 2317 915 2086 
Q 794 1856 794 1542 
Q 794 1222 922 982 
Q 1050 742 1286 611 
Q 1523 480 1830 480 
Q 2086 480 2300 569 
Q 2515 659 2669 838 
L 3040 461 
Q 2822 205 2505 70 
Q 2189 -64 1830 -64 
z
" transform="scale(0.015625)"/>
      <path id="Outfit-Regular-6c" d="M 422 0 
L 422 4570 
L 998 4570 
L 998 0 
L 422 0 
z
" transform="scale(0.015625)"/>
      <path id="Outfit-Regular-72" d="M 422 0 
L 422 3040 
L 998 3040 
L 998 0 
L 422 0 
z
M 998 1734 
L 781 1830 
Q 781 2413 1049 2758 
Q 1318 3104 1824 3104 
Q 2054 3104 2240 3024 
Q 2426 2944 2586 2758 
L 2208 2368 
Q 2112 2470 1997 2515 
Q 1882 2560 1728 2560 
Q 1408 2560 1203 2355 
Q 998 2150 998 1734 
z
" transform="scale(0.015625)"/>
      <path id="Outfit-Regular-75" d="M 1651 -64 
Q 1274 -64 976 105 
Q 678 275 512 576 
Q 346 877 346 1274 
L 346 3040 
L 922 3040 
L 922 1299 
Q 922 1050 1008 867 
Q 1094 685 1260 589 
Q 1427 493 1651 493 
Q 1990 493 2182 707 
Q 2374 922 2374 1299 
L 2374 3040 
L 2950 3040 
L 2950 1274 
Q 2950 877 2784 576 
Q 2618 275 2326 105 
Q 2035 -64 1651 -64 
z
" transform="scale(0.015625)"/>
      <path id="Outfit-Regular-6d" d="M 422 0 
L 422 3040 
L 998 3040 
L 998 0 
L 422 0 
z
M 2477 0 
L 2477 1837 
Q 2477 2176 2269 2371 
Q 2061 2566 1747 2566 
Q 1536 2566 1369 2476 
Q 1203 2387 1100 2227 
Q 998 2067 998 1843 
L 762 1958 
Q 762 2304 912 2560 
Q 1062 2816 1324 2960 
Q 1587 3104 1914 3104 
Q 2234 3104 2493 2963 
Q 2752 2822 2902 2566 
Q 3053 2310 3053 1958 
L 3053 0 
L 2477 0 
z
M 4531 0 
L 4531 1837 
Q 4531 2176 4323 2371 
Q 4115 2566 3808 2566 
Q 3597 2566 3427 2476 
Q 3258 2387 3155 2227 
Q 3053 2067 3053 1843 
L 2726 1958 
Q 2746 2310 2915 2563 
Q 3085 2816 3353 2960 
Q 3622 3104 3942 3104 
Q 4275 3104 4537 2963 
Q 4800 2822 4957 2566 
Q 5114 2310 5114 1952 
L 5114 0 
L 4531 0 
z
" transform="scale(0.015625)"/>
      <path id="Outfit-Regular-66" d="M 858 0 
L 858 3494 
Q 858 3834 1005 4086 
Q 1152 4339 1411 4486 
Q 1670 4634 2016 4634 
Q 2278 4634 2470 4544 
Q 2662 4454 2822 4282 
L 2445 3910 
Q 2362 4000 2259 4048 
Q 2157 4096 2010 4096 
Q 1734 4096 1584 3936 
Q 1434 3776 1434 3494 
L 1434 0 
L 858 0 
z
M 109 2515 
L 109 3040 
L 2400 3040 
L 2400 2515 
L 109 2515 
z
" transform="scale(0.015625)"/>
      <path id="Outfit-Regular-70" d="M 2022 -64 
Q 1677 -64 1398 80 
Q 1120 224 953 480 
Q 787 736 768 1062 
L 768 1978 
Q 787 2310 956 2563 
Q 1126 2816 1404 2960 
Q 1683 3104 2022 3104 
Q 2438 3104 2774 2893 
Q 3110 2682 3302 2323 
Q 3494 1965 3494 1517 
Q 3494 1069 3302 710 
Q 3110 352 2774 144 
Q 2438 -64 2022 -64 
z
M 422 -1274 
L 422 3040 
L 998 3040 
L 998 2240 
L 890 1504 
L 998 762 
L 998 -1274 
L 422 -1274 
z
M 1926 480 
Q 2214 480 2432 614 
Q 2650 749 2778 982 
Q 2906 1216 2906 1523 
Q 2906 1824 2778 2061 
Q 2650 2298 2432 2429 
Q 2214 2560 1933 2560 
Q 1645 2560 1427 2429 
Q 1210 2298 1088 2061 
Q 966 1824 966 1517 
Q 966 1216 1084 982 
Q 1203 749 1424 614 
Q 1645 480 1926 480 
z
" transform="scale(0.015625)"/>
      <path id="Outfit-Regular-62" d="M 2022 -64 
Q 1677 -64 1398 80 
Q 1120 224 953 480 
Q 787 736 768 1062 
L 768 1978 
Q 787 2310 956 2563 
Q 1126 2816 1404 2960 
Q 1683 3104 2022 3104 
Q 2438 3104 2774 2893 
Q 3110 2682 3302 2323 
Q 3494 1965 3494 1517 
Q 3494 1069 3302 710 
Q 3110 352 2774 144 
Q 2438 -64 2022 -64 
z
M 422 0 
L 422 4570 
L 998 4570 
L 998 2298 
L 890 1562 
L 998 819 
L 998 0 
L 422 0 
z
M 1926 480 
Q 2214 480 2432 614 
Q 2650 749 2778 982 
Q 2906 1216 2906 1523 
Q 2906 1824 2778 2061 
Q 2650 2298 2432 2429 
Q 2214 2560 1933 2560 
Q 1645 2560 1427 2429 
Q 1210 2298 1088 2061 
Q 966 1824 966 1517 
Q 966 1216 1084 982 
Q 1203 749 1424 614 
Q 1645 480 1926 480 
z
" transform="scale(0.015625)"/>
      <path id="Outfit-Regular-76" d="M 1466 0 
L 70 3040 
L 710 3040 
L 1830 474 
L 1459 474 
L 2586 3040 
L 3200 3040 
L 1805 0 
L 1466 0 
z
" transform="scale(0.015625)"/>
      <path id="Outfit-Regular-6e" d="M 2573 0 
L 2573 1773 
Q 2573 2118 2355 2342 
Q 2138 2566 1792 2566 
Q 1562 2566 1382 2464 
Q 1203 2362 1100 2182 
Q 998 2003 998 1773 
L 762 1907 
Q 762 2253 915 2521 
Q 1069 2790 1344 2947 
Q 1619 3104 1965 3104 
Q 2310 3104 2576 2931 
Q 2842 2758 2995 2480 
Q 3149 2202 3149 1888 
L 3149 0 
L 2573 0 
z
M 422 0 
L 422 3040 
L 998 3040 
L 998 0 
L 422 0 
z
" transform="scale(0.015625)"/>
      <path id="Outfit-Regular-64" d="M 1709 -64 
Q 1286 -64 953 144 
Q 621 352 425 710 
Q 230 1069 230 1517 
Q 230 1965 425 2323 
Q 621 2682 953 2893 
Q 1286 3104 1709 3104 
Q 2048 3104 2323 2960 
Q 2598 2816 2768 2563 
Q 2938 2310 2957 1978 
L 2957 1062 
Q 2938 736 2771 480 
Q 2605 224 2329 80 
Q 2054 -64 1709 -64 
z
M 1805 480 
Q 2093 480 2307 614 
Q 2522 749 2643 982 
Q 2765 1216 2765 1517 
Q 2765 1830 2640 2060 
Q 2515 2291 2300 2425 
Q 2086 2560 1798 2560 
Q 1510 2560 1292 2425 
Q 1075 2291 950 2057 
Q 826 1824 826 1523 
Q 826 1216 950 982 
Q 1075 749 1296 614 
Q 1517 480 1805 480 
z
M 3309 0 
L 2726 0 
L 2726 819 
L 2835 1562 
L 2726 2298 
L 2726 4570 
L 3309 4570 
L 3309 0 
z
" transform="scale(0.015625)"/>
     </defs>
     <use xlink:href="#Outfit-Regular-50"/>
     <use xlink:href="#Outfit-Regular-61" x="60.599991"/>
     <use xlink:href="#Outfit-Regular-74" x="118.799988"/>
     <use xlink:href="#Outfit-Regular-68" x="155.599976"/>
     <use xlink:href="#Outfit-Regular-73" x="210.399963"/>
     <use xlink:href="#Outfit-Regular-20" x="253.09996"/>
     <use xlink:href="#Outfit-Regular-74" x="273.899948"/>
     <use xlink:href="#Outfit-Regular-6f" x="310.699936"/>
     <use xlink:href="#Outfit-Regular-20" x="367.299927"/>
     <use xlink:href="#Outfit-Regular-63" x="388.099915"/>
     <use xlink:href="#Outfit-Regular-65" x="436.999908"/>
     <use xlink:href="#Outfit-Regular-6c" x="490.599899"/>
     <use xlink:href="#Outfit-Regular-6c" x="512.799896"/>
     <use xlink:href="#Outfit-Regular-20" x="534.999893"/>
     <use xlink:href="#Outfit-Regular-61" x="555.799881"/>
     <use xlink:href="#Outfit-Regular-72" x="613.999878"/>
     <use xlink:href="#Outfit-Regular-65" x="655.899872"/>
     <use xlink:href="#Outfit-Regular-20" x="709.499863"/>
     <use xlink:href="#Outfit-Regular-73" x="730.29985"/>
     <use xlink:href="#Outfit-Regular-75" x="772.999847"/>
     <use xlink:href="#Outfit-Regular-6d" x="824.599838"/>
     <use xlink:href="#Outfit-Regular-20" x="910.099823"/>
     <use xlink:href="#Outfit-Regular-6f" x="930.899811"/>
     <use xlink:href="#Outfit-Regular-66" x="987.499802"/>
     <use xlink:href="#Outfit-Regular-20" x="1027.399796"/>
     <use xlink:href="#Outfit-Regular-70" x="1048.199783"/>
     <use xlink:href="#Outfit-Regular-61" x="1106.39978"/>
     <use xlink:href="#Outfit-Regular-74" x="1164.599777"/>
     <use xlink:href="#Outfit-Regular-68" x="1201.399765"/>
     <use xlink:href="#Outfit-Regular-73" x="1256.199753"/>
     <use xlink:href="#Outfit-Regular-20" x="1298.89975"/>
     <use xlink:href="#Outfit-Regular-66" x="1319.699738"/>
     <use xlink:href="#Outfit-Regular-72" x="1359.599731"/>
     <use xlink:href="#Outfit-Regular-6f" x="1401.499725"/>
     <use xlink:href="#Outfit-Regular-6d" x="1458.099716"/>
     <use xlink:href="#Outfit-Regular-20" x="1543.599701"/>
     <use xlink:href="#Outfit-Regular-61" x="1564.399689"/>
     <use xlink:href="#Outfit-Regular-62" x="1622.599686"/>
     <use xlink:href="#Outfit-Regular-6f" x="1680.799683"/>
     <use xlink:href="#Outfit-Regular-76" x="1737.399673"/>
     <use xlink:href="#Outfit-Regular-65" x="1788.499664"/>
     <use xlink:href="#Outfit-Regular-20" x="1842.099655"/>
     <use xlink:href="#Outfit-Regular-61" x="1862.899643"/>
     <use xlink:href="#Outfit-Regular-6e" x="1921.09964"/>
     <use xlink:href="#Outfit-Regular-64" x="1975.899628"/>
     <use xlink:href="#Outfit-Regular-20" x="2034.099625"/>
     <use xlink:href="#Outfit-Regular-6c" x="2054.899612"/>
     <use xlink:href="#Outfit-Regular-65" x="2077.099609"/>
     <use xlink:href="#Outfit-Regular-66" x="2130.6996"/>
     <use xlink:href="#Outfit-Regular-74" x="2170.599594"/>
    </g>
   </g>
  </g>
 </g>
</svg></g>
<line x1="317.0" y1="1040" x2="1091.0" y2="1040" stroke="black" stroke-width="6.0"/>
<line x1="317.0" y1="1168" x2="1091.0" y2="1168" stroke="black" stroke-width="6.0"/>
<line x1="317.0" y1="1296" x2="1091.0" y2="1296" stroke="black" stroke-width="6.0"/>
<line x1="317.0" y1="1424" x2="1091.0" y2="1424" stroke="black" stroke-width="6.0"/>
<line x1="317.0" y1="1552" x2="1091.0" y2="1552" stroke="black" stroke-width="6.0"/>
<line x1="317.0" y1="1680" x2="1091.0" y2="1680" stroke="black" stroke-width="6.0"/>
<line x1="317.0" y1="1808" x2="1091.0" y2="1808" stroke="black" stroke-width="6.0"/>
<text x="272" y="1104.0" font-size="48" fill="#2C3E50" text-anchor="center" dominant-baseline="middle">0</text>
<text x="272" y="1232.0" font-size="48" fill="#2C3E50" text-anchor="center" dominant-baseline="middle">1</text>
<text x="272" y="1360.0" font-size="48" fill="#2C3E50" text-anchor="center" dominant-baseline="middle">2</text>
<text x="272" y="1488.0" font-size="48" fill="#2C3E50" text-anchor="center" dominant-baseline="middle">3</text>
<text x="272" y="1616.0" font-size="48" fill="#2C3E50" text-anchor="center" dominant-baseline="middle">4</text>
<text x="272" y="1744.0" font-size="48" fill="#2C3E50" text-anchor="center" dominant-baseline="middle">5</text>
<text x="240" y="1424.0" font-size="48" fill="#2C3E50" text-anchor="middle" transform="rotate(-90, 240, 1424.0)">row i</text>
<line x1="320" y1="1037.0" x2="320" y2="1811.0" stroke="black" stroke-width="6.0"/>
<line x1="448" y1="1037.0" x2="448" y2="1811.0" stroke="black" stroke-width="6.0"/>
<line x1="576" y1="1037.0" x2="576" y2="1811.0" stroke="black" stroke-width="6.0"/>
<line x1="704" y1="1037.0" x2="704" y2="1811.0" stroke="black" stroke-width="6.0"/>
<line x1="832" y1="1037.0" x2="832" y2="1811.0" stroke="black" stroke-width="6.0"/>
<line x1="960" y1="1037.0" x2="960" y2="1811.0" stroke="black" stroke-width="6.0"/>
<line x1="1088" y1="1037.0" x2="1088" y2="1811.0" stroke="black" stroke-width="6.0"/>
<text x="384.0" y="1020" font-size="48" fill="#2C3E50" text-anchor="middle">0</text>
<text x="512.0" y="1020" font-size="48" fill="#2C3E50" text-anchor="middle">1</text>
<text x="640.0" y="1020" font-size="48" fill="#2C3E50" text-anchor="middle">2</text>
<text x="768.0" y="1020" font-size="48" fill="#2C3E50" text-anchor="middle">3</text>
<text x="896.0" y="1020" font-size="48" fill="#2C3E50" text-anchor="middle">4</text>
<text x="1024.0" y="1020" font-size="48" fill="#2C3E50" text-anchor="middle">5</text>
<text x="704.0" y="960" font-size="48" fill="#2C3E50" text-anchor="middle">column j</text>
<rect x="323.0" y="1043.0" width="122.0" height="122.0" fill="#3498DB" opacity="0.6"/>
<rect x="963.0" y="1683.0" width="122.0" height="122.0" fill="#9B59B6" opacity="0.6"/>
<rect x="835.0" y="1683.0" width="122.0" height="122.0" fill="#27AE60" opacity="0.6"/>
<rect x="963.0" y="1555.0" width="122.0" height="122.0" fill="#27AE60" opacity="0.6"/>
<text x="1300.0" y="1300.0" font-size="144" fill="#2C3E50" opacity="0.10" text-anchor="middle" dominant-baseline="middle">sambhavg.github.io/blog/dp</text>
<text x="2520" y="2520" font-size="56" fill="#2C3E50" text-anchor="end" dominant-baseline="middle"><a href="cses.fi/problemset/task/1638" target="_blank">cses.fi/problemset/task/1638</a></text>
</svg>